<?xml version="1.0" encoding="UTF-8"?>
<svg version="1.1" xmlns="http://www.w3.org/2000/svg" width="318" height="318">
<path d="M0 0 C0.87078186 -0.00412399 1.74156372 -0.00824799 2.63873291 -0.01249695 C3.59107315 -0.00171112 4.54341339 0.00907471 5.52461243 0.02018738 C7.0321962 0.01953026 7.0321962 0.01953026 8.57023621 0.01885986 C11.89807952 0.0209528 15.22542139 0.04430805 18.55317688 0.0677948 C20.85817184 0.07338895 23.16317037 0.0776599 25.46817017 0.08065796 C31.53949301 0.09212094 37.61060109 0.12160081 43.68183899 0.1547699 C49.87525019 0.18543937 56.06869603 0.19915662 62.26216125 0.21427917 C74.41785466 0.24646896 86.57338854 0.297683 98.72895813 0.36076355 C100.81446838 4.04222107 100.81446838 4.04222107 100.0448761 6.90910339 C99.38962952 8.35083923 99.38962952 8.35083923 98.72114563 9.82170105 C97.99169739 11.46622253 97.99169739 11.46622253 97.24751282 13.14396667 C96.70513977 14.32925964 96.16276672 15.51455261 95.60395813 16.73576355 C94.47382406 19.27142146 93.35564656 21.81230916 92.23677063 24.35295105 C91.80110779 25.33645538 91.80110779 25.33645538 91.35664368 26.33982849 C87.67221979 34.68876556 84.32800959 43.17196268 80.97969055 51.65983582 C78.76831652 57.26176232 76.54317742 62.84782895 74.16255188 68.3802948 C73.77937805 69.28521667 73.39620422 70.19013855 73.00141907 71.1224823 C72.30887874 72.75066892 71.60133822 74.37261121 70.87446594 75.98576355 C68.07520735 82.64184481 68.54632091 88.5643621 71.04145813 95.31193542 C71.59212183 96.65603841 72.15521543 97.99509882 72.72895813 99.32951355 C73.03619812 100.07032166 73.34343811 100.81112976 73.6599884 101.5743866 C74.67218747 104.00784564 75.70054223 106.43411899 76.72895813 108.86076355 C77.45210206 110.59140797 78.17408423 112.32253823 78.89497375 114.05412292 C80.40406745 117.6744561 81.91941998 121.29207115 83.43989563 124.90763855 C85.64583659 130.1563211 87.83173659 135.41312862 90.01020813 140.67326355 C90.35859741 141.51441711 90.70698669 142.35557068 91.06593323 143.22221375 C91.76851405 144.91883319 92.47100848 146.61548842 93.17341614 148.31217957 C94.23486249 150.8750195 95.29760215 153.43731919 96.36079407 155.99943542 C106.82427419 181.21493278 117.28064246 206.42841675 127.18965149 231.86808777 C129.62826484 238.11637274 132.11458792 244.33119064 134.75630188 250.4974823 C135.22761536 251.5997113 135.69892883 252.70194031 136.18452454 253.83757019 C137.05678943 255.86129379 137.93972313 257.88047017 138.83589172 259.89372253 C141.03806022 264.99589075 142.23995999 268.79313136 141.72895813 274.36076355 C139.1776943 275.63639546 137.35704282 275.50165598 134.50068665 275.52189636 C133.40937943 275.53150391 132.3180722 275.54111145 131.19369507 275.55101013 C130.01037094 275.55526001 128.82704681 275.55950989 127.60786438 275.56388855 C126.39702682 275.56958862 125.18618927 275.5752887 123.93865967 275.5811615 C121.37389503 275.59062058 118.80911818 275.59714907 116.24433899 275.60099792 C112.31126352 275.61071462 108.37870798 275.6417349 104.445755 275.67326355 C101.95812791 275.6797922 99.47049707 275.68504321 96.98286438 275.68888855 C95.21091454 275.70740875 95.21091454 275.70740875 93.40316772 275.7263031 C91.76147865 275.72180145 91.76147865 275.72180145 90.08662415 275.71720886 C88.64006187 275.72267731 88.64006187 275.72267731 87.16427612 275.72825623 C84.25697751 275.28954106 83.4622251 274.69461265 81.72895813 272.36076355 C80.76800537 270.54301453 80.76800537 270.54301453 79.92988586 268.47990417 C79.60714188 267.69636063 79.28439789 266.91281708 78.95187378 266.10552979 C78.60889755 265.25131943 78.26592133 264.39710907 77.91255188 263.51701355 C77.54383469 262.61667892 77.17511749 261.7163443 76.79522705 260.78872681 C75.99704215 258.83742692 75.20227839 256.8847249 74.41053772 254.93080139 C72.72631233 250.77460775 71.02573179 246.62517275 69.3261261 242.47525024 C68.44571372 240.32501626 67.56616737 238.17442749 66.68745422 236.02349854 C62.58889613 225.9950086 58.42555673 215.99426594 54.23753357 206.00285339 C53.14279692 203.39092876 52.04988969 200.77824492 50.95722961 198.16545105 C45.94841805 186.20159021 40.8549074 174.27486683 35.72895813 162.36076355 C31.71454504 170.91586307 28.25119225 179.60820727 24.94770813 188.4584198 C24.57388 189.43681824 24.20005188 190.41521667 23.81489563 191.42326355 C23.48537903 192.30111511 23.15586243 193.17896667 22.81636047 194.0834198 C21.66847201 196.48743946 20.79869246 197.70291901 18.72895813 199.36076355 C16.54592896 199.75949097 16.54592896 199.75949097 13.98213196 199.7931366 C13.02136246 199.81293076 12.06059296 199.83272491 11.07070923 199.8531189 C10.03625168 199.85950882 9.00179413 199.86589874 7.93598938 199.8724823 C6.87482407 199.8904335 5.81365875 199.9083847 4.72033691 199.92687988 C1.32741788 199.98110878 -2.06535949 200.01491945 -5.45854187 200.04826355 C-7.75738977 200.08142545 -10.05621893 200.11591405 -12.35502625 200.15177917 C-17.99357108 200.23684237 -23.63213397 200.30513889 -29.27104187 200.36076355 C-29.57284363 201.13565125 -29.87464539 201.91053894 -30.18559265 202.70890808 C-33.08030265 210.13274117 -35.99156249 217.54975151 -38.92485046 224.9584198 C-39.72499567 226.98069467 -40.5230141 229.00381644 -41.31645203 231.0287323 C-42.09985086 233.02046845 -42.89928136 235.00443237 -43.70854187 236.98576355 C-44.11975281 238.00927917 -44.53096375 239.0327948 -44.95463562 240.08732605 C-46.50538712 242.7654785 -47.44404236 243.22890676 -50.27104187 244.36076355 C-52.2937355 244.60685921 -52.2937355 244.60685921 -54.47251892 244.60127258 C-55.30260468 244.60402191 -56.13269043 244.60677124 -56.9879303 244.60960388 C-57.88992157 244.60241333 -58.79191284 244.59522278 -59.72123718 244.58781433 C-60.6776712 244.58810638 -61.63410522 244.58839844 -62.61952209 244.58869934 C-65.77949611 244.58730649 -68.93923407 244.57174721 -72.09916687 244.55607605 C-74.29063284 244.55234577 -76.48210049 244.54949887 -78.67356873 244.54750061 C-84.44068509 244.53986538 -90.20770067 244.52021775 -95.97477722 244.49809265 C-101.85997657 244.47763191 -107.7451922 244.4684984 -113.63041687 244.4584198 C-125.17733614 244.43697183 -136.72418062 244.40283713 -148.27104187 244.36076355 C-149.59142494 240.39961433 -148.5963822 239.03797667 -147.02494812 235.2084198 C-146.77860123 234.60019882 -146.53225433 233.99197784 -146.27844238 233.36532593 C-145.47236311 231.38088013 -144.6531826 229.40214193 -143.83354187 227.42326355 C-143.2781367 226.06457364 -142.72361516 224.70552219 -142.16996765 223.34611511 C-141.06203774 220.62761267 -139.94976594 217.9109444 -138.83500671 215.19523621 C-137.44801724 211.80696035 -136.09579034 208.40605145 -134.75932312 204.9974823 C-134.39701599 204.07507751 -134.03470886 203.15267273 -133.66142273 202.20231628 C-132.99900276 200.51162431 -132.33952024 198.81977762 -131.68339539 197.12663269 C-129.49362666 191.58334834 -129.49362666 191.58334834 -127.27104187 189.36076355 C-125.36012268 189.08229065 -125.36012268 189.08229065 -123.00492859 189.04191589 C-121.68378555 189.01211136 -121.68378555 189.01211136 -120.33595276 188.98170471 C-118.90776718 188.9643779 -118.90776718 188.9643779 -117.45072937 188.94670105 C-115.99003525 188.91765182 -115.99003525 188.91765182 -114.49983215 188.88801575 C-111.38199184 188.82811797 -108.26411481 188.78179384 -105.14604187 188.73576355 C-103.03534847 188.69759316 -100.92467079 188.65854199 -98.81401062 188.61857605 C-93.63316043 188.52240828 -88.4522159 188.43739091 -83.27104187 188.36076355 C-79.32091892 179.83931117 -75.62970793 171.21839517 -72.02104187 162.54826355 C-71.56049911 161.44384918 -71.56049911 161.44384918 -71.09065247 160.31712341 C-63.30755953 141.63193167 -55.77986673 122.8426248 -48.22571754 104.06410503 C-41.94665148 88.45585075 -35.64754304 72.85752451 -29.1973114 57.3190155 C-25.99665499 49.60041175 -22.8601411 41.85834532 -19.75932312 34.0990448 C-18.97557165 32.14294896 -18.19171767 30.18689419 -17.40776062 28.23088074 C-15.88510874 24.43139739 -14.37237966 20.62815897 -12.86479187 16.82267761 C-12.17378052 15.0969335 -11.48239313 13.37133989 -10.79057312 11.6459198 C-10.32280205 10.45329277 -10.32280205 10.45329277 -9.84558105 9.23657227 C-9.5500383 8.50419846 -9.25449554 7.77182465 -8.94999695 7.01725769 C-8.69688248 6.380345 -8.44376801 5.74343231 -8.1829834 5.08721924 C-6.17160301 1.2793445 -4.30025601 -0.01571348 0 0 Z " fill="#FA7401" transform="translate(175.2710418701172,23.639236450195313)"/>
<path d="M0 0 C1.10083923 0.02009628 2.20167847 0.04019257 3.33587646 0.06089783 C5.10949554 0.10145042 5.10949554 0.10145042 6.91894531 0.14282227 C8.13406799 0.16643326 9.34919067 0.19004425 10.60113525 0.21437073 C14.48323383 0.29096031 18.36513057 0.37500544 22.24707031 0.45922852 C24.87857084 0.51245387 27.51008123 0.56519424 30.14160156 0.61743164 C36.59354943 0.7465692 43.04534732 0.88182878 49.49707031 1.02172852 C48.91537876 5.21769458 47.93971682 8.84213368 46.35498047 12.76635742 C45.91006256 13.87677399 45.46514465 14.98719055 45.00674438 16.1312561 C44.27879166 17.92168839 44.27879166 17.92168839 43.53613281 19.74829102 C43.02526643 21.0176269 42.51497362 22.28719375 42.00521851 23.55697632 C40.65677314 26.91191058 39.30130054 30.26395938 37.9440918 33.61535645 C36.07852304 38.22553312 34.22248105 42.83955467 32.36517334 47.45306396 C31.3137958 50.06464712 30.2600405 52.6752531 29.20465088 55.28521729 C26.54151185 61.87958022 23.91706231 68.48627749 21.359375 75.12231445 C20.85510304 76.42589728 20.35082059 77.72947604 19.8465271 79.03305054 C18.89855662 81.48495089 17.96148814 83.9401614 17.0296936 86.39834595 C16.60820038 87.49013153 16.18670715 88.58191711 15.75244141 89.70678711 C15.20527969 91.14325089 15.20527969 91.14325089 14.64706421 92.60873413 C13.47353636 95.07110904 12.73204864 96.46515548 10.49707031 98.02172852 C7.97236633 98.38249207 7.97236633 98.38249207 4.92407227 98.36230469 C3.21263786 98.3619648 3.21263786 98.3619648 1.46662903 98.36161804 C-0.38035332 98.33839226 -0.38035332 98.33839226 -2.26464844 98.31469727 C-4.15604301 98.30833 -4.15604301 98.30833 -6.08564758 98.30183411 C-9.43467912 98.28787479 -12.78309727 98.26092956 -16.13195801 98.22772217 C-19.55048322 98.19700957 -22.96907184 98.18332627 -26.38769531 98.16821289 C-33.09294318 98.13510075 -39.79790101 98.08486869 -46.50292969 98.02172852 C-47.78675408 94.17025534 -46.96821657 92.95677103 -45.50292969 89.21313477 C-44.80176025 87.4073999 -44.80176025 87.4073999 -44.08642578 85.56518555 C-43.55904124 84.23802196 -43.03119528 82.91104165 -42.50292969 81.58422852 C-41.96040783 80.20269937 -41.41826036 78.82102315 -40.87646484 77.43920898 C-36.07521281 65.25137527 -31.03446582 53.16245755 -25.96337891 41.08496094 C-20.93306316 29.10185122 -16.06029901 17.06430694 -11.29638672 4.97241211 C-10.50292969 3.02172852 -10.50292969 3.02172852 -9.50292969 1.02172852 C-6.3361833 -0.12743592 -3.3395585 -0.06893584 0 0 Z " fill="#FBAA3D" transform="translate(47.5029296875,63.978271484375)"/>
<path d="M0 0 C0.87078186 -0.00412399 1.74156372 -0.00824799 2.63873291 -0.01249695 C3.59107315 -0.00171112 4.54341339 0.00907471 5.52461243 0.02018738 C7.0321962 0.01953026 7.0321962 0.01953026 8.57023621 0.01885986 C11.89807952 0.0209528 15.22542139 0.04430805 18.55317688 0.0677948 C20.85817184 0.07338895 23.16317037 0.0776599 25.46817017 0.08065796 C31.53949301 0.09212094 37.61060109 0.12160081 43.68183899 0.1547699 C49.87525019 0.18543937 56.06869603 0.19915662 62.26216125 0.21427917 C74.41785466 0.24646896 86.57338854 0.297683 98.72895813 0.36076355 C99.78361511 2.17173767 99.78361511 2.17173767 100.72895813 4.36076355 C99.85444641 7.38517761 99.85444641 7.38517761 98.29927063 10.87638855 C98.0300882 11.49221802 97.76090576 12.10804749 97.48356628 12.74253845 C96.62156231 14.70541909 95.73821054 16.65781933 94.85395813 18.61076355 C94.26528553 19.94085942 93.67802836 21.27158269 93.09223938 22.60295105 C91.65415693 25.86299173 90.19677567 29.11398403 88.72895813 32.36076355 C87.54481519 28.80833473 88.03360281 27.66245793 89.16645813 24.17326355 C89.45391907 23.27220886 89.74138 22.37115417 90.03755188 21.4427948 C90.26571594 20.75572449 90.49388 20.06865417 90.72895813 19.36076355 C91.38895813 19.36076355 92.04895813 19.36076355 92.72895813 19.36076355 C92.91458313 17.59732605 92.91458313 17.59732605 93.10395813 15.79826355 C93.53538567 11.69970196 94.54602735 8.50102126 95.72895813 4.36076355 C64.04895813 4.03076355 32.36895813 3.70076355 -0.27104187 3.36076355 C-0.27104187 4.35076355 -0.27104187 5.34076355 -0.27104187 6.36076355 C-0.93104187 6.36076355 -1.59104187 6.36076355 -2.27104187 6.36076355 C-3.59104187 9.00076355 -4.91104187 11.64076355 -6.27104187 14.36076355 C-6.93104187 14.36076355 -7.59104187 14.36076355 -8.27104187 14.36076355 C-8.27104187 17.00076355 -8.27104187 19.64076355 -8.27104187 22.36076355 C-8.93104187 22.36076355 -9.59104187 22.36076355 -10.27104187 22.36076355 C-10.02354187 22.89701355 -9.77604187 23.43326355 -9.52104187 23.98576355 C-9.20083438 27.02773468 -10.33170319 28.19288994 -12.08354187 30.5834198 C-15.04996567 35.02329752 -17.10661349 40.16200249 -18.27104187 45.36076355 C-18.93104187 45.36076355 -19.59104187 45.36076355 -20.27104187 45.36076355 C-23.38991959 51.3061242 -25.60624384 57.77260401 -27.39604187 64.23576355 C-28.45923078 68.03286679 -29.53165585 71.32562312 -31.83354187 74.54826355 C-33.63158863 78.06618112 -33.72023823 81.0494485 -33.86479187 84.9584198 C-34.35581852 87.86208702 -35.50415914 89.02610555 -37.27104187 91.36076355 C-38.20609036 93.81908094 -39.05204177 96.23101874 -39.83354187 98.73576355 C-40.14581726 99.70642761 -40.14581726 99.70642761 -40.46440125 100.69670105 C-41.4175893 103.66084697 -42.34887096 106.62646696 -43.22416687 109.6146698 C-44.29447853 112.42224105 -45.34336284 113.83822959 -47.45854187 115.92326355 C-50.02694178 118.59995769 -50.02694178 118.59995769 -50.14604187 122.29826355 C-49.85729187 122.97888855 -49.56854187 123.65951355 -49.27104187 124.36076355 C-50.26104187 124.36076355 -51.25104187 124.36076355 -52.27104187 124.36076355 C-52.27104187 125.02076355 -52.27104187 125.68076355 -52.27104187 126.36076355 C-52.93104187 126.36076355 -53.59104187 126.36076355 -54.27104187 126.36076355 C-54.76604187 128.34076355 -54.76604187 128.34076355 -55.27104187 130.36076355 C-55.93104187 130.36076355 -56.59104187 130.36076355 -57.27104187 130.36076355 C-57.60104187 131.35076355 -57.93104187 132.34076355 -58.27104187 133.36076355 C-59.27104187 131.36076355 -59.27104187 131.36076355 -58.68826294 129.37492371 C-58.35520645 128.55814148 -58.02214996 127.74135925 -57.67900085 126.89982605 C-57.30313339 125.96732025 -56.92726593 125.03481445 -56.54000854 124.0740509 C-56.11996048 123.05491608 -55.69991241 122.03578125 -55.26713562 120.98576355 C-54.83770157 119.92690948 -54.40826752 118.86805542 -53.96582031 117.77711487 C-52.55416344 114.30191919 -51.1314614 110.83136119 -49.70854187 107.36076355 C-48.73103259 104.96078863 -47.75414725 102.56055949 -46.77787781 100.16007996 C-43.95330881 93.22243388 -41.11502904 86.29046924 -38.27104187 79.36076355 C-37.90722412 78.47417053 -37.54340637 77.58757751 -37.16856384 76.67411804 C-34.58903266 70.39092413 -32.00590503 64.10923693 -29.40434265 57.83512878 C-26.13033597 49.93115612 -22.91847482 42.00436847 -19.74369812 34.0599823 C-18.96222572 32.10958291 -18.18065045 30.15922473 -17.39897156 28.20890808 C-16.24784535 25.33651729 -15.09937156 22.46322118 -13.9596405 19.58628845 C-12.90999764 16.93676309 -11.85116703 14.29107661 -10.79057312 11.6459198 C-10.4787056 10.85078476 -10.16683807 10.05564972 -9.84552002 9.23641968 C-9.4022361 8.13793449 -9.4022361 8.13793449 -8.94999695 7.01725769 C-8.69688248 6.380345 -8.44376801 5.74343231 -8.1829834 5.08721924 C-6.17160301 1.2793445 -4.30025601 -0.01571348 0 0 Z " fill="#E06F11" transform="translate(175.2710418701172,23.639236450195313)"/>
<path d="M0 0 C0.33 0 0.66 0 1 0 C0.52285822 5.24855958 -0.47292691 9.73575888 -2.2421875 14.69140625 C-3.25163851 17.76658949 -3.87473168 20.8771455 -4.47265625 24.0546875 C-5 26 -5 26 -7 29 C-7.38499891 30.65549531 -7.72793135 32.3222433 -8 34 C-9.485 34.495 -9.485 34.495 -11 35 C-10.505 38.465 -10.505 38.465 -10 42 C-10.66 42 -11.32 42 -12 42 C-12.185625 43.8253125 -12.185625 43.8253125 -12.375 45.6875 C-12.78891306 49.06479059 -13.54573451 51.89756695 -15 55 C-15.99 55 -16.98 55 -18 55 C-18.66 56.32 -19.32 57.64 -20 59 C-21.77044678 59.029729 -21.77044678 59.029729 -23.57666016 59.06005859 C-27.97140201 59.13634656 -32.36582276 59.22502784 -36.76025391 59.31738281 C-38.65927778 59.35557692 -40.55837164 59.39044625 -42.45751953 59.421875 C-45.19328763 59.46773387 -47.92857792 59.52569337 -50.6640625 59.5859375 C-51.50804596 59.59748871 -52.35202942 59.60903992 -53.22158813 59.62094116 C-57.85243885 59.73590396 -61.64156315 60.24306294 -66 62 C-66.33 63.98 -66.66 65.96 -67 68 C-67.33 68 -67.66 68 -68 68 C-68.268125 69.134375 -68.53625 70.26875 -68.8125 71.4375 C-69.204375 72.613125 -69.59625 73.78875 -70 75 C-71.485 75.495 -71.485 75.495 -73 76 C-73.1546875 77.7634375 -73.1546875 77.7634375 -73.3125 79.5625 C-73.82914958 83.82485903 -75.1508361 87.14087534 -77 91 C-77.66 91 -78.32 91 -79 91 C-79.12375 91.969375 -79.2475 92.93875 -79.375 93.9375 C-79.58125 94.948125 -79.7875 95.95875 -80 97 C-80.99 97.495 -80.99 97.495 -82 98 C-82.68729254 100.11846285 -82.68729254 100.11846285 -83.125 102.5625 C-83.29257813 103.38878906 -83.46015625 104.21507812 -83.6328125 105.06640625 C-83.75398438 105.70449219 -83.87515625 106.34257812 -84 107 C-82.3408255 107.01213028 -82.3408255 107.01213028 -80.64813232 107.02450562 C-70.23024477 107.10194917 -59.8124881 107.189684 -49.39477158 107.28752708 C-44.03876085 107.33749903 -38.68276993 107.38382909 -33.32666016 107.421875 C-28.15890709 107.45871631 -22.99131941 107.50507329 -17.82370758 107.55806351 C-15.85095365 107.57661356 -13.87816426 107.59171926 -11.90535736 107.60334396 C-9.14473999 107.62019584 -6.38450189 107.64922848 -3.62402344 107.68115234 C-2.80618881 107.68331253 -1.98835419 107.68547272 -1.14573669 107.68769836 C3.01676821 107.7492978 5.18533767 108.09266883 9 110 C-23.01 110 -55.02 110 -88 110 C-89.32038307 106.03885078 -88.32534033 104.67721312 -86.75390625 100.84765625 C-86.50755936 100.23943527 -86.26121246 99.63121429 -86.00740051 99.00456238 C-85.20132124 97.02011658 -84.38214073 95.04137838 -83.5625 93.0625 C-83.00709483 91.70381009 -82.45257329 90.34475864 -81.89892578 88.98535156 C-80.79099587 86.26684912 -79.67872407 83.55018085 -78.56396484 80.83447266 C-77.17697537 77.4461968 -75.82474847 74.0452879 -74.48828125 70.63671875 C-74.12597412 69.71431396 -73.76366699 68.79190918 -73.39038086 67.84155273 C-72.72796089 66.15086076 -72.06847837 64.45901407 -71.41235352 62.76586914 C-69.22258479 57.22258479 -69.22258479 57.22258479 -67 55 C-65.08908081 54.7215271 -65.08908081 54.7215271 -62.73388672 54.68115234 C-61.85312469 54.66128265 -60.97236267 54.64141296 -60.06491089 54.62094116 C-58.63672531 54.60361435 -58.63672531 54.60361435 -57.1796875 54.5859375 C-55.71899338 54.55688828 -55.71899338 54.55688828 -54.22879028 54.5272522 C-51.11094997 54.46735442 -47.99307294 54.42103029 -44.875 54.375 C-42.76430659 54.33682961 -40.65362892 54.29777844 -38.54296875 54.2578125 C-33.36211856 54.16164473 -28.18117403 54.07662736 -23 54 C-18.49551534 44.37302923 -14.44108675 34.56714718 -10.375 24.75 C-9.36997267 22.32787447 -8.3644242 19.90596627 -7.35855103 17.48419189 C-6.73797471 15.98960917 -6.1179608 14.49479274 -5.49862671 12.99969482 C-3.69609422 8.6530311 -1.86154999 4.32173266 0 0 Z " fill="#D4782B" transform="translate(115,158)"/>
<path d="M0 0 C1.10083923 0.02009628 2.20167847 0.04019257 3.33587646 0.06089783 C5.10949554 0.10145042 5.10949554 0.10145042 6.91894531 0.14282227 C8.13406799 0.16643326 9.34919067 0.19004425 10.60113525 0.21437073 C14.48323383 0.29096031 18.36513057 0.37500544 22.24707031 0.45922852 C24.87857084 0.51245387 27.51008123 0.56519424 30.14160156 0.61743164 C36.59354943 0.7465692 43.04534732 0.88182878 49.49707031 1.02172852 C48.73049135 5.87576436 47.53898518 9.58278316 45.49707031 14.02172852 C44.17707031 13.69172852 42.85707031 13.36172852 41.49707031 13.02172852 C41.82707031 10.38172852 42.15707031 7.74172852 42.49707031 5.02172852 C32.98528136 4.96268983 23.49514015 5.09648494 13.98876953 5.39404297 C11.83930509 5.46023755 9.68971174 5.5193709 7.54003906 5.57836914 C6.15851567 5.62026104 4.77700463 5.66256298 3.39550781 5.70532227 C1.54965088 5.76030884 1.54965088 5.76030884 -0.33349609 5.81640625 C-2.89671882 5.98245696 -5.06097796 6.27424656 -7.50292969 7.02172852 C-7.69628906 7.76938477 -7.88964844 8.51704102 -8.08886719 9.28735352 C-8.34925781 10.27219727 -8.60964844 11.25704102 -8.87792969 12.27172852 C-9.26078125 13.73352539 -9.26078125 13.73352539 -9.65136719 15.22485352 C-10.87510225 19.24409343 -12.23638313 22.29960638 -15.50292969 25.02172852 C-16.16292969 25.02172852 -16.82292969 25.02172852 -17.50292969 25.02172852 C-17.79296875 26.0175293 -17.79296875 26.0175293 -18.08886719 27.03344727 C-18.34925781 27.91645508 -18.60964844 28.79946289 -18.87792969 29.70922852 C-19.13316406 30.5793457 -19.38839844 31.44946289 -19.65136719 32.34594727 C-20.48647735 34.97003196 -21.44840139 37.47845439 -22.50292969 40.02172852 C-23.14101563 41.56280273 -23.14101563 41.56280273 -23.79199219 43.13500977 C-24.23285156 44.19075195 -24.67371094 45.24649414 -25.12792969 46.33422852 C-25.79695313 47.93717773 -25.79695313 47.93717773 -26.47949219 49.57250977 C-26.98609375 50.78487305 -26.98609375 50.78487305 -27.50292969 52.02172852 C-28.16292969 52.02172852 -28.82292969 52.02172852 -29.50292969 52.02172852 C-27.53219046 45.9196294 -25.363418 39.93080408 -22.99902344 33.97094727 C-22.67507095 33.14971878 -22.35111847 32.3284903 -22.01734924 31.4823761 C-21.33865045 29.76350976 -20.65878219 28.04510476 -19.9777832 26.32714844 C-18.93673489 23.69990414 -17.9002432 21.07089466 -16.86425781 18.44165039 C-16.20111489 16.76380986 -15.53771261 15.0860718 -14.87402344 13.40844727 C-14.56565048 12.62612228 -14.25727753 11.8437973 -13.93955994 11.0377655 C-13.64908279 10.30632828 -13.35860565 9.57489105 -13.05932617 8.82128906 C-12.80634262 8.18225143 -12.55335907 7.54321381 -12.29270935 6.8848114 C-12.03208206 6.26999405 -11.77145477 5.6551767 -11.50292969 5.02172852 C-11.22332901 4.30398758 -10.94372833 3.58624664 -10.65565491 2.84675598 C-9.50292969 1.02172852 -9.50292969 1.02172852 -7.72186279 0.27308655 C-5.11873817 -0.02179223 -2.62054321 -0.05409378 0 0 Z " fill="#F0AB4E" transform="translate(47.5029296875,63.978271484375)"/>
<path d="M0 0 C1 2 1 2 0.49505615 3.78788757 C0.0522934 4.86874382 0.0522934 4.86874382 -0.39941406 5.97143555 C-0.7301593 6.78956223 -1.06090454 7.6076889 -1.40167236 8.4506073 C-1.76927673 9.33702408 -2.1368811 10.22344086 -2.515625 11.13671875 C-2.88725769 12.04952103 -3.25889038 12.9623233 -3.64178467 13.90278625 C-4.83729305 16.83403936 -6.04357293 19.76072617 -7.25 22.6875 C-8.04887227 24.64229417 -8.84705792 26.59736908 -9.64453125 28.55273438 C-15.46541174 42.80081333 -15.46541174 42.80081333 -17.71777344 47.89379883 C-19.12666217 51.30683982 -19.54327284 54.34618271 -20 58 C-22.59459459 68.03243243 -22.59459459 68.03243243 -25.5625 72.1875 C-27.36054676 75.70541757 -27.44919636 78.68868495 -27.59375 82.59765625 C-28.08477665 85.50132347 -29.23311727 86.665342 -31 89 C-31.93504849 91.45831739 -32.7809999 93.87025519 -33.5625 96.375 C-33.87477539 97.34566406 -33.87477539 97.34566406 -34.19335938 98.3359375 C-35.14654743 101.30008342 -36.07782909 104.26570341 -36.953125 107.25390625 C-38.02343666 110.0614775 -39.07232097 111.47746604 -41.1875 113.5625 C-43.75589991 116.23919414 -43.75589991 116.23919414 -43.875 119.9375 C-43.58625 120.618125 -43.2975 121.29875 -43 122 C-43.99 122 -44.98 122 -46 122 C-46 122.66 -46 123.32 -46 124 C-46.66 124 -47.32 124 -48 124 C-48.33 125.32 -48.66 126.64 -49 128 C-49.66 128 -50.32 128 -51 128 C-51.33 128.99 -51.66 129.98 -52 131 C-53 129 -53 129 -52.41722107 127.01416016 C-52.08416458 126.19737793 -51.75110809 125.3805957 -51.40795898 124.5390625 C-51.03209152 123.6065567 -50.65622406 122.6740509 -50.26896667 121.71328735 C-49.84891861 120.69415253 -49.42887054 119.6750177 -48.99609375 118.625 C-48.5666597 117.56614594 -48.13722565 116.50729187 -47.69477844 115.41635132 C-46.28312157 111.94115564 -44.86041953 108.47059764 -43.4375 105 C-42.45999072 102.60002508 -41.48310538 100.19979594 -40.50683594 97.79931641 C-37.68226694 90.86167033 -34.84398717 83.92970569 -32 77 C-31.63618225 76.11340698 -31.2723645 75.22681396 -30.89752197 74.31335449 C-28.31871802 68.03193197 -25.73469566 61.75268273 -23.13769531 55.47875977 C-19.8553416 47.54366505 -16.61499883 39.59249554 -13.40234375 31.62890625 C-13.01029755 30.65751709 -12.61825134 29.68612793 -12.21432495 28.68530273 C-10.27880474 23.88788249 -8.34665824 19.08913679 -6.41894531 14.28857422 C-5.72077549 12.55563491 -5.02253682 10.82272333 -4.32421875 9.08984375 C-4.00202866 8.28438614 -3.67983856 7.47892853 -3.34788513 6.64906311 C-1.11329368 1.11329368 -1.11329368 1.11329368 0 0 Z " fill="#DB8435" transform="translate(169,26)"/>
<path d="M0 0 C0.99 0.33 1.98 0.66 3 1 C3.33 2.98 3.66 4.96 4 7 C4.99 7 5.98 7 7 7 C7 8.32 7 9.64 7 11 C7.66 11 8.32 11 9 11 C12.42857143 18.28571429 12.42857143 18.28571429 12 23 C12.66 23 13.32 23 14 23 C14.66 24.65 15.32 26.3 16 28 C16.33 28 16.66 28 17 28 C17 31.3 17 34.6 17 38 C18.32 38.66 19.64 39.32 21 40 C21.33 40.99 21.66 41.98 22 43 C22.66 43 23.32 43 24 43 C24 45.31 24 47.62 24 50 C24.66 50.33 25.32 50.66 26 51 C26 52.65 26 54.3 26 56 C26.66 56 27.32 56 28 56 C28 57.32 28 58.64 28 60 C29.485 60.495 29.485 60.495 31 61 C34.34965586 66.95494375 34.14064278 72.4672277 33 79 C34.65 79.33 36.3 79.66 38 80 C37.979375 81.134375 37.95875 82.26875 37.9375 83.4375 C37.58422523 86.81575674 37.58422523 86.81575674 39 88 C40.65644366 88.12290718 42.31798993 88.17783908 43.97875977 88.20532227 C45.57029625 88.2352401 45.57029625 88.2352401 47.19398499 88.26576233 C48.348134 88.28247482 49.50228302 88.29918732 50.69140625 88.31640625 C51.86638168 88.33718735 53.04135712 88.35796844 54.25193787 88.37937927 C58.02206324 88.44500124 61.79226082 88.5038183 65.5625 88.5625 C68.11133573 88.6056732 70.66016403 88.64928708 73.20898438 88.69335938 C79.47257892 88.80069545 85.73624601 88.9024379 92 89 C92 89.33 92 89.66 92 90 C84.3645666 90.07593591 76.72923023 90.12855169 69.09350586 90.16479492 C66.49483603 90.17990063 63.89619177 90.20038634 61.29760742 90.22631836 C57.56683042 90.26262243 53.83638987 90.27970858 50.10546875 90.29296875 C48.93976852 90.30845261 47.7740683 90.32393646 46.57304382 90.33988953 C45.49214981 90.34011612 44.4112558 90.34034271 43.29760742 90.34057617 C42.34496506 90.34723801 41.39232269 90.35389984 40.41081238 90.36076355 C37.51531199 89.92746936 36.72761839 89.32385461 35 87 C34.02558899 85.14860535 34.02558899 85.14860535 33.16918945 83.03979492 C32.84011597 82.24040497 32.51104248 81.44101501 32.17199707 80.61740112 C31.64793274 79.3121196 31.64793274 79.3121196 31.11328125 77.98046875 C30.73868774 77.06564728 30.36409424 76.15082581 29.97814941 75.20828247 C28.74943905 72.20409132 27.53098895 69.19584966 26.3125 66.1875 C24.60727692 62.00653952 22.8972551 57.82754631 21.1875 53.6484375 C20.75605179 52.59173355 20.32460358 51.5350296 19.88008118 50.44630432 C17.030301 43.47741118 14.13154891 36.53113117 11.1875 29.6015625 C10.81344528 28.72025162 10.43939056 27.83894073 10.05400085 26.93092346 C8.62481554 23.56662087 7.19421724 20.20297546 5.75405884 16.84335327 C4.77558977 14.56020069 3.80332996 12.2744912 2.83203125 9.98828125 C2.54235474 9.31854279 2.25267822 8.64880432 1.95422363 7.95877075 C0.75372263 5.12161652 0 3.11713835 0 0 Z " fill="#E47618" transform="translate(222,209)"/>
<path d="M0 0 C0.33 0 0.66 0 1 0 C0.52285822 5.24855958 -0.47292691 9.73575888 -2.2421875 14.69140625 C-3.25163851 17.76658949 -3.87473168 20.8771455 -4.47265625 24.0546875 C-5 26 -5 26 -7 29 C-7.38499891 30.65549531 -7.72793135 32.3222433 -8 34 C-9.485 34.495 -9.485 34.495 -11 35 C-10.505 38.465 -10.505 38.465 -10 42 C-10.66 42 -11.32 42 -12 42 C-12.185625 43.8253125 -12.185625 43.8253125 -12.375 45.6875 C-12.78891306 49.06479059 -13.54573451 51.89756695 -15 55 C-15.99 55 -16.98 55 -18 55 C-18.66 56.32 -19.32 57.64 -20 59 C-21.77044678 59.029729 -21.77044678 59.029729 -23.57666016 59.06005859 C-27.97140201 59.13634656 -32.36582276 59.22502784 -36.76025391 59.31738281 C-38.65927778 59.35557692 -40.55837164 59.39044625 -42.45751953 59.421875 C-45.19328763 59.46773387 -47.92857792 59.52569337 -50.6640625 59.5859375 C-51.50804596 59.59748871 -52.35202942 59.60903992 -53.22158813 59.62094116 C-57.85243885 59.73590396 -61.64156315 60.24306294 -66 62 C-66.495 64.97 -66.495 64.97 -67 68 C-67.33 68 -67.66 68 -68 68 C-68.268125 69.134375 -68.53625 70.26875 -68.8125 71.4375 C-69.204375 72.613125 -69.59625 73.78875 -70 75 C-71.485 75.495 -71.485 75.495 -73 76 C-73.72433347 77.97984481 -74.37743972 79.98583438 -75 82 C-76.25831488 84.70610575 -77.61736613 87.35554494 -79 90 C-80 88 -80 88 -79.47094727 86.21240234 C-79.02319946 85.15980225 -79.02319946 85.15980225 -78.56640625 84.0859375 C-78.24736328 83.32539063 -77.92832031 82.56484375 -77.59960938 81.78125 C-77.25736328 80.9871875 -76.91511719 80.193125 -76.5625 79.375 C-76.22412109 78.57320313 -75.88574219 77.77140625 -75.53710938 76.9453125 C-74.69833222 74.96060036 -73.85004755 72.97991125 -73 71 C-72.01 71 -71.02 71 -70 71 C-70.020625 70.195625 -70.04125 69.39125 -70.0625 68.5625 C-70 66 -70 66 -69 65 C-68.835 63.845 -68.67 62.69 -68.5 61.5 C-68 58 -68 58 -67 57 C-65.58774954 56.9071274 -64.17091066 56.88253228 -62.75561523 56.88647461 C-61.85475693 56.88655014 -60.95389862 56.88662567 -60.02574158 56.88670349 C-59.04658279 56.89186478 -58.06742401 56.89702606 -57.05859375 56.90234375 C-56.06118668 56.9037587 -55.0637796 56.90517365 -54.03614807 56.90663147 C-50.83656876 56.91224886 -47.63705831 56.92480429 -44.4375 56.9375 C-42.27408955 56.94251276 -40.11067801 56.94707605 -37.94726562 56.95117188 C-32.63148675 56.96222393 -27.31574829 56.97897896 -22 57 C-21.69586182 56.22366211 -21.39172363 55.44732422 -21.07836914 54.64746094 C-19.6909043 51.24115152 -17.91159727 48.09971737 -16.12109375 44.890625 C-15.098758 42.25463735 -14.82172669 40.58573626 -14.62744141 37.82543945 C-14.13877089 33.08643784 -12.76871095 29.22930218 -10.83984375 24.90234375 C-10.53051407 24.1826088 -10.22118439 23.46287384 -9.90248108 22.72132874 C-8.9254002 20.45498031 -7.93184403 18.19631939 -6.9375 15.9375 C-6.26646834 14.38915237 -5.59653628 12.84032769 -4.92773438 11.29101562 C-3.29779874 7.52171705 -1.65306074 3.75921084 0 0 Z " fill="#EA7611" transform="translate(115,158)"/>
<path d="M0 0 C2.81931783 3.75909045 4.50982667 7.25305494 6.23046875 11.55078125 C6.53774902 12.30440445 6.8450293 13.05802765 7.16162109 13.83448792 C8.17570082 16.32498099 9.18157946 18.81870151 10.1875 21.3125 C10.90020531 23.06746067 11.61351264 24.82217697 12.32739258 26.57666016 C13.43715448 29.3047997 14.54629058 32.03318224 15.65312195 34.76251221 C18.13492255 40.88224571 20.63714446 46.99319019 23.15625 53.09765625 C30.06492854 69.8472508 36.88420803 86.62361608 43.46044922 103.50683594 C45.89919175 109.75526335 48.38555901 115.97026188 51.02734375 122.13671875 C51.49865723 123.23894775 51.9699707 124.34117676 52.45556641 125.47680664 C53.3278313 127.50053024 54.210765 129.51970662 55.10693359 131.53295898 C57.30910209 136.6351272 58.51100186 140.43236781 58 146 C56.25372522 143.38058783 55.61277612 141.96175123 55 139 C54.01 139.33 53.02 139.66 52 140 C51.18525038 137.1047827 50.37312678 134.20887172 49.5625 131.3125 C49.33240234 130.49587891 49.10230469 129.67925781 48.86523438 128.83789062 C47.76816554 124.91070219 46.71223092 121.01960209 46 117 C45.34 117 44.68 117 44 117 C43.8453125 115.6078125 43.8453125 115.6078125 43.6875 114.1875 C42.95614544 110.79667432 42.36955574 110.26653158 40 108 C40 106.68 40 105.36 40 104 C39.34 104 38.68 104 38 104 C38 101.69 38 99.38 38 97 C37.34 97 36.68 97 36 97 C35 95 35 95 34.8359375 91.3671875 C34.05390979 83.84953411 30.56871273 77.00541629 27.625 70.125 C26.99267875 68.62229078 26.36167061 67.11902839 25.73193359 65.61523438 C24.45234777 62.56209732 23.16769842 59.51117586 21.87890625 56.46191406 C19.07940931 49.82765214 16.34838771 43.1657809 13.625 36.5 C13.15529785 35.36191895 12.6855957 34.22383789 12.20166016 33.05126953 C11.77675293 32.01341309 11.3518457 30.97555664 10.9140625 29.90625 C10.5423291 29.00197266 10.1705957 28.09769531 9.78759766 27.16601562 C9 25 9 25 9 23 C8.34 23 7.68 23 7 23 C6.67 21.35 6.34 19.7 6 18 C5.34 18 4.68 18 4 18 C4 17.01 4 16.02 4 15 C3.34 15 2.68 15 2 15 C1.34 10.05 0.68 5.1 0 0 Z " fill="#D79A64" transform="translate(259,152)"/>
<path d="M0 0 C0.495 1.485 0.495 1.485 1 3 C-0.15661157 5.20807663 -1.22677434 7.22677434 -3 9 C-4.50316769 9.1224331 -6.01188167 9.17776285 -7.51977539 9.20532227 C-8.48069595 9.22526749 -9.44161652 9.24521271 -10.43165588 9.26576233 C-11.476436 9.28247482 -12.52121613 9.29918732 -13.59765625 9.31640625 C-15.19364906 9.3475779 -15.19364906 9.3475779 -16.82188416 9.37937927 C-20.2353544 9.44499254 -23.64890429 9.50381423 -27.0625 9.5625 C-29.37045109 9.60567403 -31.678394 9.64928794 -33.98632812 9.69335938 C-39.65746682 9.80068584 -45.32868552 9.90242992 -51 10 C-51.30180176 10.7748877 -51.60360352 11.54977539 -51.91455078 12.34814453 C-54.80877216 19.77072449 -57.72120556 27.18577347 -60.65380859 34.59326172 C-61.45539902 36.62180595 -62.25379761 38.6516233 -63.04541016 40.68408203 C-63.82830183 42.69146318 -64.62823469 44.69064753 -65.4375 46.6875 C-66.05431641 48.24017578 -66.05431641 48.24017578 -66.68359375 49.82421875 C-68 52 -68 52 -70.16015625 52.83203125 C-70.76730469 52.88746094 -71.37445313 52.94289063 -72 53 C-72.33 52.34 -72.66 51.68 -73 51 C-72.06553465 48.96855359 -71.06775224 46.96466413 -70 45 C-69.34 45 -68.68 45 -68 45 C-68 43.35 -68 41.7 -68 40 C-66.515 39.505 -66.515 39.505 -65 39 C-64.87625 37.824375 -64.7525 36.64875 -64.625 35.4375 C-64.13564065 31.45879574 -63.1944795 27.82233441 -62 24 C-61.34 24 -60.68 24 -60 24 C-60 22.35 -60 20.7 -60 19 C-59.01 19 -58.02 19 -57 19 C-57.66 16.03 -58.32 13.06 -59 10 C-58.21625 9.731875 -57.4325 9.46375 -56.625 9.1875 C-53.71885077 8.15185568 -53.71885077 8.15185568 -52 5 C-51.01 5.33 -50.02 5.66 -49 6 C-47.55767616 6.07349951 -46.11201691 6.08995543 -44.66796875 6.06933594 C-43.36146362 6.05371613 -43.36146362 6.05371613 -42.02856445 6.03778076 C-41.09101318 6.02015686 -40.15346191 6.00253296 -39.1875 5.984375 C-37.73960083 5.95963104 -37.73960083 5.95963104 -36.26245117 5.93438721 C-34.22146012 5.89689507 -32.18052323 5.85634964 -30.13964844 5.81298828 C-27.01243349 5.75024944 -23.88537979 5.70882303 -20.7578125 5.66796875 C-18.77601529 5.62892073 -16.79424268 5.58859895 -14.8125 5.546875 C-13.87494873 5.53734802 -12.93739746 5.52782104 -11.97143555 5.51800537 C-11.10043213 5.49498352 -10.22942871 5.47196167 -9.33203125 5.44824219 C-8.18311401 5.42706329 -8.18311401 5.42706329 -7.01098633 5.40545654 C-4.50703639 4.90060831 -3.69677152 3.84428694 -2 2 C-1.34 2 -0.68 2 0 2 C0 1.34 0 0.68 0 0 Z " fill="#DF751A" transform="translate(197,214)"/>
<path d="M0 0 C0.99 0 1.98 0 3 0 C2.32846633 4.09611638 1.04334937 7.68009252 -0.51171875 11.5234375 C-0.7624263 12.14666901 -1.01313385 12.76990051 -1.2714386 13.41201782 C-2.07273227 15.40134576 -2.87995518 17.38820259 -3.6875 19.375 C-4.21069 20.67041001 -4.73347966 21.96598178 -5.25585938 23.26171875 C-5.51464874 23.90240295 -5.77343811 24.54308716 -6.04006958 25.20318604 C-6.56389638 26.5026516 -7.08576057 27.80290998 -7.60568237 29.10394287 C-8.93939267 32.4305328 -10.31263547 35.72953876 -11.76806641 39.00488281 C-12.05124222 39.66082428 -12.33441803 40.31676575 -12.62617493 40.99258423 C-13.40652001 42.79724779 -14.20615186 44.59353687 -15.00708008 46.38916016 C-17.06942683 53.88906387 -14.85784674 60.30744396 -11.8046875 67.2109375 C-11.49298615 67.94575348 -11.18128479 68.68056946 -10.86013794 69.43765259 C-9.87627078 71.75507817 -8.87734054 74.06551079 -7.875 76.375 C-6.86641419 78.70624245 -5.86155268 81.03873901 -4.86843872 83.37661743 C-4.25340235 84.82408525 -3.62941771 86.26779095 -2.99557495 87.7071228 C-0.88745791 92.66237374 -0.88745791 92.66237374 -2 96 C-4.3129482 93.6870518 -4.49580975 92.52095125 -5.125 89.375 C-5.29257813 88.55773437 -5.46015625 87.74046875 -5.6328125 86.8984375 C-5.75398437 86.27195312 -5.87515625 85.64546875 -6 85 C-6.66 85 -7.32 85 -8 85 C-8.433125 84.030625 -8.86625 83.06125 -9.3125 82.0625 C-10.7014861 78.72268235 -10.7014861 78.72268235 -14 78 C-13.938125 76.7625 -13.87625 75.525 -13.8125 74.25 C-13.79260609 70.49005024 -14.46600352 68.85074604 -17 66 C-17 65.01 -17 64.02 -17 63 C-17.66 62.67 -18.32 62.34 -19 62 C-19.99415358 59.13708937 -20.13519698 56.45070778 -20.125 53.4375 C-20.12757813 52.67308594 -20.13015625 51.90867188 -20.1328125 51.12109375 C-20 49 -20 49 -19 46 C-18.34 46 -17.68 46 -17 46 C-17 44.68 -17 43.36 -17 42 C-16.34 42 -15.68 42 -15 42 C-14.87625 40.80375 -14.7525 39.6075 -14.625 38.375 C-13.98728398 33.41304525 -12.98468112 29.39761192 -10.0625 25.25 C-7.39904378 21.05303869 -6.24658114 16.77856102 -5 12 C-4.01 12 -3.02 12 -2 12 C-2.02320313 11.30132812 -2.04640625 10.60265625 -2.0703125 9.8828125 C-2.08835937 8.97273438 -2.10640625 8.06265625 -2.125 7.125 C-2.14820313 6.22007813 -2.17140625 5.31515625 -2.1953125 4.3828125 C-2 2 -2 2 0 0 Z " fill="#D87A24" transform="translate(260,56)"/>
<path d="M0 0 C0.66 0 1.32 0 2 0 C0.09085983 6.75568552 -2.16955683 13.25054488 -4.8359375 19.7421875 C-5.19716705 20.63181183 -5.55839661 21.52143616 -5.93057251 22.4380188 C-7.07446745 25.25209718 -8.22466319 28.06354973 -9.375 30.875 C-10.13842714 32.7511368 -10.90145106 34.62743773 -11.6640625 36.50390625 C-15.40012644 45.68705544 -19.16113241 54.85927452 -23 64 C-23.99 63.67 -24.98 63.34 -26 63 C-26.50610724 56.92671312 -25.04157942 53.22771463 -22 48 C-21.34 48 -20.68 48 -20 48 C-19.855625 46.9275 -19.71125 45.855 -19.5625 44.75 C-19.16250558 42.08337051 -18.72408076 39.58600271 -18 37 C-16.02 36.505 -16.02 36.505 -14 36 C-12.25837153 29.68369407 -10.56086351 23.36352045 -9 17 C-8.34 17 -7.68 17 -7 17 C-6.01 13.37 -5.02 9.74 -4 6 C-3.34 6 -2.68 6 -2 6 C-1.34 4.02 -0.68 2.04 0 0 Z " fill="#CFA45E" transform="translate(90,79)"/>
<path d="M0 0 C0.99 0 1.98 0 3 0 C5.81488089 4.54013046 7.15628806 7.69666778 8 13 C8.48855469 13.45890625 8.97710937 13.9178125 9.48046875 14.390625 C11.41348233 16.43792987 11.5095863 17.72599578 11.75 20.5 C11.82734375 21.2734375 11.9046875 22.046875 11.984375 22.84375 C12 25 12 25 11 28 C7.7 20.41 4.4 12.82 1 5 C-2.04875279 11.70725615 -5.04300272 18.3707462 -7.8125 25.1875 C-8.27946289 26.32928711 -8.27946289 26.32928711 -8.75585938 27.49414062 C-9.50581517 29.32864787 -10.25319982 31.16420589 -11 33 C-11.33 33 -11.66 33 -12 33 C-12.02698189 31.37509046 -12.04638757 29.75005367 -12.0625 28.125 C-12.07410156 27.22007812 -12.08570313 26.31515625 -12.09765625 25.3828125 C-12 23 -12 23 -11 21 C-10.34 21 -9.68 21 -9 21 C-8.9175 19.845 -8.835 18.69 -8.75 17.5 C-7.90898892 10.80744706 -4.68611275 4.83727767 0 0 Z " fill="#D4721C" transform="translate(210,181)"/>
<path d="M0 0 C2.25288421 2.25288421 2.93141333 3.95766798 4.109375 6.90625 C4.52799805 7.94458984 4.94662109 8.98292969 5.37792969 10.05273438 C6.05710449 11.75913086 6.05710449 11.75913086 6.75 13.5 C7.72800222 15.93797679 8.70698053 18.37553686 9.6875 20.8125 C9.94690369 21.45852173 10.20630737 22.10454346 10.47357178 22.7701416 C12.55998207 27.95031378 14.70969811 33.10238183 16.875 38.25 C17.84702486 40.57084963 18.81840243 42.89196932 19.78967285 45.21313477 C20.4296343 46.73710043 21.07278237 48.25973187 21.71911621 49.78100586 C22.62867212 51.92341121 23.52640074 54.07042862 24.421875 56.21875 C24.69837891 56.86134766 24.97488281 57.50394531 25.25976562 58.16601562 C27.1138042 62.65858741 27.1138042 62.65858741 26 66 C25.01 66 24.02 66 23 66 C21.50178941 62.62902617 21 60.79557881 21 57 C20.34 57 19.68 57 19 57 C18.77957031 55.65808594 18.77957031 55.65808594 18.5546875 54.2890625 C17.18942668 46.92920817 15.45158265 41.40521663 11.28515625 35.19140625 C9.9912657 32.98510655 9.55554374 31.5183468 9.3125 29 C9.209375 28.01 9.10625 27.02 9 26 C8.01 25.34 7.02 24.68 6 24 C5.29947539 21.336937 5.22255182 18.75964263 5 16 C4.34 16 3.68 16 3 16 C0.91613111 10.72086547 0.42089996 5.60461531 0 0 Z " fill="#DB7317" transform="translate(267,175)"/>
<path d="M0 0 C33.99 0 67.98 0 103 0 C105 4 105 4 104.12548828 7.02441406 C103.61228027 8.17651367 103.09907227 9.32861328 102.5703125 10.515625 C102.30113007 11.13145447 102.03194763 11.74728394 101.75460815 12.3817749 C100.89260418 14.34465554 100.00925241 16.29705578 99.125 18.25 C98.5363274 19.58009587 97.94907023 20.91081914 97.36328125 22.2421875 C95.9251988 25.50222818 94.46781754 28.75322048 93 32 C91.81585706 28.44757118 92.30464468 27.30169438 93.4375 23.8125 C93.86869141 22.46091797 93.86869141 22.46091797 94.30859375 21.08203125 C94.53675781 20.39496094 94.76492188 19.70789063 95 19 C95.66 19 96.32 19 97 19 C97.185625 17.2365625 97.185625 17.2365625 97.375 15.4375 C97.86435935 11.45879574 98.8055205 7.82233441 100 4 C96.93960859 1.95973906 96.3566623 1.75068716 92.91877747 1.75949097 C92.09006638 1.75674164 91.26135529 1.75399231 90.40753174 1.75115967 C89.50194519 1.75835022 88.59635864 1.76554077 87.66333008 1.77294922 C86.22889809 1.77251114 86.22889809 1.77251114 84.76548767 1.77206421 C81.60007702 1.77345915 78.43490085 1.7890282 75.26953125 1.8046875 C73.07663603 1.80841704 70.88373915 1.81126429 68.69084167 1.81326294 C62.91549082 1.82090401 57.14024035 1.84055663 51.3649292 1.8626709 C45.47311766 1.88311909 39.58128991 1.89226246 33.68945312 1.90234375 C22.12625795 1.92380202 10.56313732 1.95794373 -1 2 C-0.67 1.34 -0.34 0.68 0 0 Z " fill="#CD874C" transform="translate(171,24)"/>
<path d="M0 0 C0.66 0 1.32 0 2 0 C-2.7 14.7 -2.7 14.7 -6 18 C-8.40444946 18.24050903 -8.40444946 18.24050903 -11.45947266 18.22705078 C-12.60050446 18.22689972 -13.74153625 18.22674866 -14.91714478 18.22659302 C-16.77186905 18.21110916 -16.77186905 18.21110916 -18.6640625 18.1953125 C-19.92640717 18.1924826 -21.18875183 18.18965271 -22.48934937 18.18673706 C-25.84646944 18.17742131 -29.20331912 18.15944835 -32.56036377 18.1373291 C-35.98553122 18.1168755 -39.41072659 18.1077364 -42.8359375 18.09765625 C-49.55736671 18.07556458 -56.27866773 18.04206377 -63 18 C-64.13643966 14.59068103 -63.86747764 13.99664544 -62.5625 10.8125 C-62.27503906 10.09707031 -61.98757812 9.38164062 -61.69140625 8.64453125 C-61.34916016 7.83048828 -61.34916016 7.83048828 -61 7 C-60.67 7 -60.34 7 -60 7 C-60.33 9.97 -60.66 12.94 -61 16 C-33.775 15.505 -33.775 15.505 -6 15 C-4.68 10.71 -3.36 6.42 -2 2 C-1.34 2 -0.68 2 0 2 C0 1.34 0 0.68 0 0 Z " fill="#DC9644" transform="translate(64,144)"/>
<path d="M0 0 C1.65125885 0.03014442 1.65125885 0.03014442 3.33587646 0.06089783 C5.10949554 0.10145042 5.10949554 0.10145042 6.91894531 0.14282227 C8.13406799 0.16643326 9.34919067 0.19004425 10.60113525 0.21437073 C14.48323383 0.29096031 18.36513057 0.37500544 22.24707031 0.45922852 C24.87857084 0.51245387 27.51008123 0.56519424 30.14160156 0.61743164 C36.59354943 0.7465692 43.04534732 0.88182878 49.49707031 1.02172852 C48.73049135 5.87576436 47.53898518 9.58278316 45.49707031 14.02172852 C44.0217769 10.18596564 45.15067388 7.77313843 46.49707031 4.02172852 C38.84332607 3.945862 31.18967825 3.89320634 23.53564453 3.85693359 C20.93013892 3.84181744 18.32465887 3.8213242 15.71923828 3.79541016 C11.98105575 3.75915163 8.24320866 3.74203053 4.50488281 3.72875977 C3.3340213 3.71327591 2.16315979 3.69779205 0.95681763 3.68183899 C-0.66463669 3.6814991 -0.66463669 3.6814991 -2.31884766 3.68115234 C-3.27371063 3.67449051 -4.22857361 3.66782867 -5.21237183 3.66096497 C-5.96825592 3.78001694 -6.72414001 3.89906891 -7.50292969 4.02172852 C-8.49292969 5.50672852 -8.49292969 5.50672852 -9.50292969 7.02172852 C-10.16292969 7.02172852 -10.82292969 7.02172852 -11.50292969 7.02172852 C-10.75292969 4.08422852 -10.75292969 4.08422852 -9.50292969 1.02172852 C-6.38878569 -0.2174132 -3.31416261 -0.06841161 0 0 Z " fill="#D9A452" transform="translate(47.5029296875,63.978271484375)"/>
<path d="M0 0 C2.59579673 3.89369509 4.07312927 8.03960309 5.78125 12.3828125 C6.72694893 15.12265568 6.72694893 15.12265568 9 16 C10.08411224 18.33047385 11.0641867 20.63892701 12.00390625 23.02734375 C12.28725327 23.73145889 12.57060028 24.43557404 12.86253357 25.161026 C13.7689746 27.4173274 14.66593645 29.67725778 15.5625 31.9375 C16.46467978 34.19330947 17.36874138 36.44835695 18.2731781 38.70326233 C18.83586782 40.1081856 19.39684163 41.51379755 19.95594788 42.92015076 C21.37796666 46.50410685 21.37796666 46.50410685 23 50 C23.04022391 52.3329866 23.04320247 54.66706666 23 57 C21.25372522 54.38058783 20.61277612 52.96175123 20 50 C18.515 50.495 18.515 50.495 17 51 C16.18525038 48.1047827 15.37312678 45.20887172 14.5625 42.3125 C14.33240234 41.49587891 14.10230469 40.67925781 13.86523438 39.83789062 C12.76816554 35.91070219 11.71223092 32.01960209 11 28 C10.34 28 9.68 28 9 28 C8.8453125 26.6078125 8.8453125 26.6078125 8.6875 25.1875 C7.95614544 21.79667432 7.36955574 21.26653158 5 19 C5 17.68 5 16.36 5 15 C4.34 15 3.68 15 3 15 C3 12.69 3 10.38 3 8 C2.34 8 1.68 8 1 8 C-0.35439668 5.29120665 -0.06501451 2.99066732 0 0 Z " fill="#D57925" transform="translate(294,241)"/>
<path d="M0 0 C0.66 0 1.32 0 2 0 C2 2.31 2 4.62 2 7 C2.66 7.33 3.32 7.66 4 8 C4 9.65 4 11.3 4 13 C4.66 13 5.32 13 6 13 C6 14.32 6 15.64 6 17 C6.99 17.33 7.98 17.66 9 18 C12.34965586 23.95494375 12.14064278 29.4672277 11 36 C12.65 36.33 14.3 36.66 16 37 C15.979375 38.134375 15.95875 39.26875 15.9375 40.4375 C15.58422523 43.81575674 15.58422523 43.81575674 17 45 C18.65644366 45.12290718 20.31798993 45.17783908 21.97875977 45.20532227 C23.57029625 45.2352401 23.57029625 45.2352401 25.19398499 45.26576233 C26.348134 45.28247482 27.50228302 45.29918732 28.69140625 45.31640625 C29.86638168 45.33718735 31.04135712 45.35796844 32.25193787 45.37937927 C36.02206324 45.44500124 39.79226082 45.5038183 43.5625 45.5625 C46.11133573 45.6056732 48.66016403 45.64928708 51.20898438 45.69335938 C57.47257892 45.80069545 63.73624601 45.9024379 70 46 C70 46.33 70 46.66 70 47 C62.3645666 47.07593591 54.72923023 47.12855169 47.09350586 47.16479492 C44.49483603 47.17990063 41.89619177 47.20038634 39.29760742 47.22631836 C35.56683042 47.26262243 31.83638987 47.27970858 28.10546875 47.29296875 C26.93976852 47.30845261 25.7740683 47.32393646 24.57304382 47.33988953 C23.49214981 47.34011612 22.4112558 47.34034271 21.29760742 47.34057617 C19.86864388 47.35056892 19.86864388 47.35056892 18.41081238 47.36076355 C15.55872422 46.93396574 14.73321517 46.25340372 13 44 C10.40429305 39.12186108 8.85414152 34.32698942 8.5 28.8125 C8.22959667 24.67919198 7.30228629 22.2312562 5.05078125 18.80078125 C3.40332222 15.97744068 2.55839597 12.93549509 1.61328125 9.8203125 C1.15111973 8.00300796 1.15111973 8.00300796 0 7 C-0.04092937 4.66702567 -0.04241723 2.33294775 0 0 Z " fill="#E5832D" transform="translate(244,252)"/>
<path d="M0 0 C0.33 0 0.66 0 1 0 C1.29341888 5.67276511 1.00559652 8.99067246 -2 14 C-0.96939453 13.98259766 -0.96939453 13.98259766 0.08203125 13.96484375 C0.98308594 13.95582031 1.88414063 13.94679688 2.8125 13.9375 C3.70582031 13.92589844 4.59914063 13.91429687 5.51953125 13.90234375 C8 14 8 14 11 15 C13.47793696 15.11938411 15.92998076 15.18520508 18.40893555 15.20532227 C19.53613007 15.22017166 19.53613007 15.22017166 20.68609619 15.23532104 C23.16960501 15.26690496 25.65313296 15.29168116 28.13671875 15.31640625 C29.85879513 15.33697846 31.5808665 15.35797501 33.30293274 15.37937927 C37.83533666 15.43457234 42.36778594 15.48399382 46.90026855 15.53222656 C51.52535031 15.58246176 56.1503662 15.63813729 60.77539062 15.69335938 C69.85020414 15.80090713 78.92507486 15.90235964 88 16 C88 16.99 88 17.98 88 19 C87.49122314 18.83890747 86.98244629 18.67781494 86.45825195 18.51184082 C83.19508848 17.83240669 79.98621597 17.83076451 76.66796875 17.81054688 C75.93563522 17.80225357 75.2033017 17.79396027 74.44877625 17.78541565 C72.86046482 17.76804383 71.27212818 17.75286923 69.68377686 17.73963928 C67.15972448 17.71851757 64.63579521 17.69149557 62.11181641 17.66296387 C56.74125934 17.60333822 51.37064248 17.55126102 46 17.5 C39.80020781 17.44048445 33.60047434 17.37779046 27.40078735 17.30812073 C24.93281977 17.28186512 22.46484534 17.26085025 19.99682617 17.2401123 C11.62133919 17.15580628 3.33942458 16.87238661 -5 16 C-4.67 13.03 -4.34 10.06 -4 7 C-3.01 6.67 -2.02 6.34 -1 6 C-0.67 4.02 -0.34 2.04 0 0 Z " fill="#E5750F" transform="translate(36,249)"/>
<path d="M0 0 C0.33 0 0.66 0 1 0 C0.52330576 5.24363665 -0.47408715 9.7267207 -2.234375 14.6796875 C-3.45709609 18.38528101 -4.23203882 22.1782638 -5 26 C-5.61359375 26.07089844 -6.2271875 26.14179688 -6.859375 26.21484375 C-9.18068448 26.8150121 -9.18068448 26.8150121 -10.265625 29.06640625 C-10.59046875 29.89011719 -10.9153125 30.71382812 -11.25 31.5625 C-11.58515625 32.38878906 -11.9203125 33.21507812 -12.265625 34.06640625 C-12.50796875 34.70449219 -12.7503125 35.34257812 -13 36 C-14.38678713 31.83963862 -12.71806356 29.30570316 -11.03515625 25.48828125 C-10.72299667 24.76005661 -10.4108371 24.03183197 -10.08921814 23.28153992 C-9.08927623 20.95454167 -8.07609742 18.63357813 -7.0625 16.3125 C-6.38258445 14.73670714 -5.70353693 13.16053944 -5.02539062 11.58398438 C-3.36030491 7.71823327 -1.68332435 3.85784205 0 0 Z " fill="#D77E2C" transform="translate(115,158)"/>
<path d="M0 0 C0.66 0 1.32 0 2 0 C0.87326802 6.76039188 -1.32916173 12.06720953 -4.5625 18.10546875 C-6.01286582 21.02590646 -7.01334673 23.89615325 -8 27 C-9.47189511 30.79940406 -11.05497872 34.5527122 -12.625 38.3125 C-13.29402344 39.91544922 -13.29402344 39.91544922 -13.9765625 41.55078125 C-14.48316406 42.76314453 -14.48316406 42.76314453 -15 44 C-15.66 44 -16.32 44 -17 44 C-15.08517906 38.06403879 -12.98212938 32.24659461 -10.64453125 26.46484375 C-10.33803146 25.70071671 -10.03153168 24.93658966 -9.71574402 24.14930725 C-8.75045264 21.74437571 -7.78154709 19.34092031 -6.8125 16.9375 C-6.1514515 15.29241461 -5.49064211 13.64723312 -4.83007812 12.00195312 C-3.22280936 8.00018769 -1.61230095 3.99974048 0 0 Z " fill="#D0A05C" transform="translate(35,72)"/>
<path d="M0 0 C0.625 1.75 0.625 1.75 1 4 C0.33558653 5.33445756 -0.33139606 6.66763707 -1 8 C-1.33865923 9.53202986 -1.62770119 11.07559726 -1.875 12.625 C-2.87991592 18.07099595 -4.78346209 22.9428504 -7 28 C-7.99 27.67 -8.98 27.34 -10 27 C-10.50610724 20.92671312 -9.04157942 17.22771463 -6 12 C-5.34 12 -4.68 12 -4 12 C-3.855625 10.9275 -3.71125 9.855 -3.5625 8.75 C-2.70588235 3.03921569 -2.70588235 3.03921569 -2 1 C-1.34 0.67 -0.68 0.34 0 0 Z " fill="#E9A852" transform="translate(74,115)"/>
<path d="M0 0 C1.210456 3.74510211 0.50993453 5.45291081 -1.171875 9 C-2.36558898 11.88293187 -2.90224359 14.8282204 -3.47265625 17.88671875 C-4.03487519 20.1397591 -4.92532711 21.94913022 -6 24 C-6.36784131 25.3242287 -6.71202981 26.65613912 -7 28 C-7.66 28 -8.32 28 -9 28 C-10.86551426 31.58752742 -12.42535928 35.27812193 -14 39 C-15.43797452 34.68607645 -13.53455119 31.81189199 -11.81640625 27.83203125 C-11.48205063 27.03721848 -11.14769501 26.2424057 -10.8032074 25.42350769 C-9.7318977 22.88262187 -8.6473991 20.34760913 -7.5625 17.8125 C-6.83441166 16.09216685 -6.10718705 14.37146787 -5.38085938 12.65039062 C-3.59723911 8.42928147 -1.80176926 4.21339242 0 0 Z " fill="#D86E15" transform="translate(164,41)"/>
<path d="M0 0 C0.66 0 1.32 0 2 0 C1.05545328 5.36900238 -0.26533846 9.89724118 -2.86328125 14.6875 C-4.81746237 18.66301622 -6.19165066 22.8707877 -7.65625 27.046875 C-9.04363143 30.09588769 -10.495336 31.81372549 -13 34 C-10.87555401 26.18300191 -7.9836327 18.82105482 -4.8125 11.375 C-4.34908203 10.27542969 -3.88566406 9.17585938 -3.40820312 8.04296875 C-2.27669493 5.36001117 -1.14056098 2.67911856 0 0 Z " fill="#D0A15D" transform="translate(17,117)"/>
<path d="M0 0 C1.37095624 3.69037278 0.60010967 5.70883835 -0.9375 9.25 C-1.31777344 10.14203125 -1.69804687 11.0340625 -2.08984375 11.953125 C-2.39019531 12.62859375 -2.69054688 13.3040625 -3 14 C-2.34 14.33 -1.68 14.66 -1 15 C-1.99 15.66 -2.98 16.32 -4 17 C-5.00805555 19.17897492 -5.00805555 19.17897492 -5.6875 21.625 C-5.93886719 22.44226563 -6.19023437 23.25953125 -6.44921875 24.1015625 C-6.63097656 24.72804688 -6.81273437 25.35453125 -7 26 C-7.66 26 -8.32 26 -9 26 C-9.17015625 26.70125 -9.3403125 27.4025 -9.515625 28.125 C-11.07268862 34.22073842 -12.98006321 39.48080518 -16 45 C-17.28853699 41.13438903 -16.4190399 39.99199461 -14.8125 36.3125 C-14.3484375 35.24257812 -13.884375 34.17265625 -13.40625 33.0703125 C-11.97169935 29.93821024 -10.43119169 26.88230136 -8.84765625 23.82421875 C-7.5186026 20.9639973 -6.76383594 18.05534377 -6 15 C-6.66 14.67 -7.32 14.34 -8 14 C-7.01 14 -6.02 14 -5 14 C-4.81630859 13.17242187 -4.81630859 13.17242187 -4.62890625 12.328125 C-3.92006389 9.70408745 -2.96388744 7.2663047 -1.9375 4.75 C-1.57527344 3.85796875 -1.21304687 2.9659375 -0.83984375 2.046875 C-0.56269531 1.37140625 -0.28554688 0.6959375 0 0 Z " fill="#EFAA4A" transform="translate(25,102)"/>
<path d="M0 0 C0.33 0 0.66 0 1 0 C1.43896367 5.25958286 0.14578136 8.26446943 -2.4375 12.8125 C-3.39462891 14.52373047 -3.39462891 14.52373047 -4.37109375 16.26953125 C-6 19 -6 19 -7 20 C-8.41225046 20.0928726 -9.82908934 20.11746772 -11.24438477 20.11352539 C-12.14524307 20.11344986 -13.04610138 20.11337433 -13.97425842 20.11329651 C-14.95341721 20.10813522 -15.93257599 20.10297394 -16.94140625 20.09765625 C-17.93881332 20.0962413 -18.9362204 20.09482635 -19.96385193 20.09336853 C-23.16343124 20.08775114 -26.36294169 20.07519571 -29.5625 20.0625 C-31.72591045 20.05748724 -33.88932199 20.05292395 -36.05273438 20.04882812 C-41.36851325 20.03777607 -46.68425171 20.02102104 -52 20 C-52 19.67 -52 19.34 -52 19 C-37.48 18.67 -22.96 18.34 -8 18 C-3.91679043 9.03231148 -3.91679043 9.03231148 0 0 Z " fill="#C48D55" transform="translate(100,194)"/>
<path d="M0 0 C0.33 0 0.66 0 1 0 C0.67 3.3 0.34 6.6 0 10 C18.15 10 36.3 10 55 10 C55 10.33 55 10.66 55 11 C36.19 11 17.38 11 -2 11 C-3.13643966 7.59068103 -2.86747764 6.99664544 -1.5625 3.8125 C-1.13130859 2.73935547 -1.13130859 2.73935547 -0.69140625 1.64453125 C-0.46324219 1.10183594 -0.23507812 0.55914062 0 0 Z " fill="#CC9C5E" transform="translate(3,151)"/>
<path d="M0 0 C17.49 0 34.98 0 53 0 C52.12288257 5.2627046 51.1476409 8.33121544 49 13 C47.53273202 9.18510326 48.56663581 6.70988378 50 3 C47.60354256 1.80177128 46.04337973 1.84372685 43.36669922 1.79467773 C42.40585419 1.77473251 41.44500916 1.75478729 40.45504761 1.73423767 C39.41542877 1.71752518 38.37580994 1.70081268 37.3046875 1.68359375 C36.24210724 1.66281265 35.17952698 1.64203156 34.08474731 1.62062073 C30.68156562 1.55509739 27.27830511 1.49622727 23.875 1.4375 C21.57160634 1.39431743 19.26822074 1.35070323 16.96484375 1.30664062 C11.30997979 1.19941318 5.65503697 1.09765198 0 1 C0 0.67 0 0.34 0 0 Z " fill="#C8A269" transform="translate(44,65)"/>
<path d="M0 0 C15.18 0 30.36 0 46 0 C46 0.33 46 0.66 46 1 C31.15 1.33 16.3 1.66 1 2 C0.67 4.31 0.34 6.62 0 9 C-0.62256028 11.01416562 -1.27566653 13.02015519 -2 15 C-2.66 15 -3.32 15 -4 15 C-4.65797681 8.58472609 -2.99461411 6.73788174 0 0 Z " fill="#C57126" transform="translate(47,214)"/>
<path d="M0 0 C0.66 0.33 1.32 0.66 2 1 C1.55123384 2.64846769 1.09069512 4.29373455 0.625 5.9375 C0.36976562 6.85402344 0.11453125 7.77054688 -0.1484375 8.71484375 C-1 11 -1 11 -3 12 C-4.05352843 14.30965848 -5.05719096 16.6429774 -6 19 C-6.66 19 -7.32 19 -8 19 C-7.67 19.99 -7.34 20.98 -7 22 C-7.99 22.99 -8.98 23.98 -10 25 C-6.85059156 8.34834049 -6.85059156 8.34834049 -3 5 C-2.67 4.01 -2.34 3.02 -2 2 C-1.34 2 -0.68 2 0 2 C0 1.34 0 0.68 0 0 Z " fill="#F5730C" transform="translate(123,148)"/>
<path d="M0 0 C0.495 1.485 0.495 1.485 1 3 C-0.15661157 5.20807663 -1.22677434 7.22677434 -3 9 C-4.49311837 9.10683775 -5.99114559 9.14620064 -7.48803711 9.15771484 C-8.44250229 9.16797699 -9.39696747 9.17823914 -10.38035583 9.18881226 C-11.41886185 9.19611359 -12.45736786 9.20341492 -13.52734375 9.2109375 C-15.70248156 9.23900033 -17.87761167 9.26766475 -20.05273438 9.296875 C-23.50056797 9.33821652 -26.94825706 9.375082 -30.39624023 9.40136719 C-33.71108069 9.42886247 -37.02525645 9.47473038 -40.33984375 9.5234375 C-41.37632553 9.52669037 -42.41280731 9.52994324 -43.48069763 9.53329468 C-44.91712364 9.55814438 -44.91712364 9.55814438 -46.38256836 9.58349609 C-47.22782578 9.59158295 -48.07308319 9.5996698 -48.94395447 9.60800171 C-49.62244949 9.73736115 -50.30094452 9.86672058 -51 10 C-51.66 10.99 -52.32 11.98 -53 13 C-53.33 11.35 -53.66 9.7 -54 8 C-37.5 8 -21 8 -4 8 C-4 7.34 -4 6.68 -4 6 C-3.34 5.67 -2.68 5.34 -2 5 C-1.27840576 3.35636866 -0.60648579 1.68949614 0 0 Z " fill="#C87D40" transform="translate(197,214)"/>
<path d="M0 0 C1.98 0 3.96 0 6 0 C7.09665936 3.9512956 6.94876226 5.99541777 5.19921875 9.6875 C4.79896484 10.55117188 4.39871094 11.41484375 3.98632812 12.3046875 C3.3434082 13.63886719 3.3434082 13.63886719 2.6875 15 C1.85740764 16.77052158 1.02796033 18.54134575 0.19921875 20.3125 C-0.17372314 21.09238281 -0.54666504 21.87226562 -0.9309082 22.67578125 C-2.04020367 25.08740327 -3.03387744 27.52795134 -4 30 C-5.18414294 26.44757118 -4.69535532 25.30169438 -3.5625 21.8125 C-3.27503906 20.91144531 -2.98757813 20.01039062 -2.69140625 19.08203125 C-2.46324219 18.39496094 -2.23507812 17.70789063 -2 17 C-1.34 17 -0.68 17 0 17 C0.185625 15.2365625 0.185625 15.2365625 0.375 13.4375 C0.86435935 9.45879574 1.8055205 5.82233441 3 2 C2.01 1.34 1.02 0.68 0 0 Z " fill="#D67F2E" transform="translate(268,26)"/>
<path d="M0 0 C1 2 1 2 0 6 C3.96 6 7.92 6 12 6 C11.67 6.99 11.34 7.98 11 9 C6.05 9 1.1 9 -4 9 C-5 6 -5 6 -4.25 3.375 C-3 1 -3 1 0 0 Z " fill="#E06E13" transform="translate(31,259)"/>
<path d="M0 0 C1.5625 1.75 1.5625 1.75 3 4 C2.67 5.32 2.34 6.64 2 8 C-15.82 7.67 -33.64 7.34 -52 7 C-52 6.67 -52 6.34 -52 6 C-34.51 6 -17.02 6 1 6 C0.505 3.03 0.505 3.03 0 0 Z " fill="#DF7211" transform="translate(313,291)"/>
<path d="M0 0 C1.32 0 2.64 0 4 0 C4.66 2.64 5.32 5.28 6 8 C6.66 8 7.32 8 8 8 C11.88984175 11.65409377 12.55939466 14.82651456 13.01953125 19.9140625 C13 22 13 22 12 25 C8.7 17.41 5.4 9.82 2 2 C1.01 2.495 1.01 2.495 0 3 C0 2.01 0 1.02 0 0 Z " fill="#D9893B" transform="translate(209,184)"/>
<path d="M0 0 C1.46726798 3.81489674 0.43336419 6.29011622 -1 10 C0.03016683 11.25716392 0.03016683 11.25716392 2.25317383 11.08178711 C3.22794678 11.0638208 4.20271973 11.04585449 5.20703125 11.02734375 C6.26857422 11.01509766 7.33011719 11.00285156 8.42382812 10.99023438 C10.67129129 10.95525944 12.91869537 10.9162394 15.16601562 10.87304688 C16.23142578 10.86208984 17.29683594 10.85113281 18.39453125 10.83984375 C19.37268799 10.82300537 20.35084473 10.80616699 21.35864258 10.78881836 C24 11 24 11 28 13 C17.44 13 6.88 13 -4 13 C-2.875 2.875 -2.875 2.875 0 0 Z " fill="#F1A84B" transform="translate(7,147)"/>
<path d="M0 0 C0.66 0 1.32 0 2 0 C0.33846988 5.85659906 -1.47041916 11.4590134 -4 17 C-4.66 17 -5.32 17 -6 17 C-6 17.66 -6 18.32 -6 19 C-6.66 19 -7.32 19 -8 19 C-8 20.65 -8 22.3 -8 24 C-8.66 24.33 -9.32 24.66 -10 25 C-9.67 22.36 -9.34 19.72 -9 17 C-8.34 17 -7.68 17 -7 17 C-6.01 13.37 -5.02 9.74 -4 6 C-3.34 6 -2.68 6 -2 6 C-1.34 4.02 -0.68 2.04 0 0 Z " fill="#E5A550" transform="translate(90,79)"/>
<path d="M0 0 C0.33 0.66 0.66 1.32 1 2 C1.99 2.33 2.98 2.66 4 3 C5.0625 5.58203125 5.0625 5.58203125 6 8.8125 C7.26632594 13.23397791 7.26632594 13.23397791 9.61328125 17.12109375 C11.94260637 20.27716525 11.19079885 23.18402298 11 27 C8.17521191 22.76281787 6.37607307 18.17125495 4.375 13.5 C3.95476562 12.53707031 3.53453125 11.57414062 3.1015625 10.58203125 C2.50601563 9.19564453 2.50601563 9.19564453 1.8984375 7.78125 C1.53411621 6.93626953 1.16979492 6.09128906 0.79443359 5.22070312 C0 3 0 3 0 0 Z " fill="#D68136" transform="translate(242,257)"/>
<path d="M0 0 C5.02100227 6.69466969 8.96928871 14.47025933 8 23 C7.34 22.34 6.68 21.68 6 21 C6 20.01 6 19.02 6 18 C5.34 18 4.68 18 4 18 C4 17.01 4 16.02 4 15 C3.34 15 2.68 15 2 15 C1.34 10.05 0.68 5.1 0 0 Z " fill="#D38132" transform="translate(259,152)"/>
<path d="M0 0 C1 2 1 2 0.546875 3.76953125 C-0.6332744 6.79511034 -1.72664921 9.57858419 -3.5 12.3125 C-5.47099629 15.84386835 -6.19114618 19.44538613 -7.05859375 23.37890625 C-8.14994414 26.41747934 -9.59045198 27.89721169 -12 30 C-11.50996298 27.79483341 -10.91277645 25.78484857 -10.0625 23.6875 C-9.0739682 21.18709604 -8.35228422 18.68749635 -7.62890625 16.1015625 C-6.83829617 13.45964808 -5.96647311 10.85536736 -5.0625 8.25 C-4.74410156 7.32703125 -4.42570313 6.4040625 -4.09765625 5.453125 C-3.01509407 3.03373336 -1.99601247 1.70599356 0 0 Z " fill="#EF750E" transform="translate(155,70)"/>
<path d="M0 0 C0.33 0 0.66 0 1 0 C1.29341888 5.67276511 1.00559652 8.99067246 -2 14 C-0.96939453 13.96519531 -0.96939453 13.96519531 0.08203125 13.9296875 C1.43361328 13.90261719 1.43361328 13.90261719 2.8125 13.875 C3.70582031 13.85179687 4.59914063 13.82859375 5.51953125 13.8046875 C8 14 8 14 11 16 C5.72 16 0.44 16 -5 16 C-4.67 13.03 -4.34 10.06 -4 7 C-3.01 6.67 -2.02 6.34 -1 6 C-0.67 4.02 -0.34 2.04 0 0 Z " fill="#F1760B" transform="translate(36,249)"/>
<path d="M0 0 C1 2 1 2 0.28735352 4.24658203 C-0.09493408 5.15778809 -0.47722168 6.06899414 -0.87109375 7.0078125 C-1.28037109 7.99394531 -1.68964844 8.98007813 -2.11132812 9.99609375 C-2.7677832 11.54490234 -2.7677832 11.54490234 -3.4375 13.125 C-4.0881543 14.68541016 -4.0881543 14.68541016 -4.75195312 16.27734375 C-5.82775422 18.85453757 -6.91069378 21.42849195 -8 24 C-8.33 24 -8.66 24 -9 24 C-9.02698189 22.37509046 -9.04638757 20.75005367 -9.0625 19.125 C-9.07410156 18.22007812 -9.08570313 17.31515625 -9.09765625 16.3828125 C-9 14 -9 14 -8 12 C-7.01 11.67 -6.02 11.34 -5 11 C-4.05222674 9.23424291 -4.05222674 9.23424291 -3.4375 7.125 C-2.51191912 4.29073539 -1.69894116 2.54841174 0 0 Z " fill="#D57F2B" transform="translate(207,190)"/>
<path d="M0 0 C0.99 0.33 1.98 0.66 3 1 C3.33 2.98 3.66 4.96 4 7 C4.66 7 5.32 7 6 7 C6.69809445 9.26805795 7.38371017 11.53866607 8.0625 13.8125 C8.26166016 14.45509766 8.46082031 15.09769531 8.66601562 15.75976562 C10.11328125 20.66015625 10.11328125 20.66015625 9 24 C7.49115787 20.56631406 5.99446599 17.12746451 4.5 13.6875 C4.07074219 12.71103516 3.64148438 11.73457031 3.19921875 10.72851562 C2.79316406 9.79072266 2.38710937 8.85292969 1.96875 7.88671875 C1.40317383 6.59060669 1.40317383 6.59060669 0.82617188 5.26831055 C0 3 0 3 0 0 Z " fill="#D6813B" transform="translate(222,209)"/>
<path d="M0 0 C1.22419163 3.93795909 0.48320272 6.16112237 -1 10 C-0.34 9.67 0.32 9.34 1 9 C1.33 10.32 1.66 11.64 2 13 C1.01 13 0.02 13 -1 13 C-1 13.66 -1 14.32 -1 15 C-1.66 15 -2.32 15 -3 15 C-3.33 16.32 -3.66 17.64 -4 19 C-4.66 19 -5.32 19 -6 19 C-6.33 19.99 -6.66 20.98 -7 22 C-8 20 -8 20 -7.37915039 17.93701172 C-7.03875732 17.10959473 -6.69836426 16.28217773 -6.34765625 15.4296875 C-5.80141602 14.08583984 -5.80141602 14.08583984 -5.24414062 12.71484375 C-4.65922852 11.30912109 -4.65922852 11.30912109 -4.0625 9.875 C-3.67642578 8.93011719 -3.29035156 7.98523438 -2.89257812 7.01171875 C-1.93524154 4.67156265 -0.97080009 2.33459572 0 0 Z " fill="#DA8133" transform="translate(124,135)"/>
<path d="M0 0 C0.99 0 1.98 0 3 0 C2.57742724 1.4835001 2.13643678 2.96176424 1.6875 4.4375 C1.32205078 5.67306641 1.32205078 5.67306641 0.94921875 6.93359375 C0.47935547 7.95646484 0.47935547 7.95646484 0 9 C-0.99 9.33 -1.98 9.66 -3 10 C-3.72433347 11.97984481 -4.37743972 13.98583438 -5 16 C-6.25831488 18.70610575 -7.61736613 21.35554494 -9 24 C-10 22 -10 22 -9.47094727 20.21240234 C-9.17244873 19.51066895 -8.8739502 18.80893555 -8.56640625 18.0859375 C-8.0878418 16.94511719 -8.0878418 16.94511719 -7.59960938 15.78125 C-7.25736328 14.9871875 -6.91511719 14.193125 -6.5625 13.375 C-6.22412109 12.57320312 -5.88574219 11.77140625 -5.53710938 10.9453125 C-4.69833222 8.96060036 -3.85004755 6.97991125 -3 5 C-2.01 5 -1.02 5 0 5 C0 3.35 0 1.7 0 0 Z " fill="#DE6E11" transform="translate(45,224)"/>
<path d="M0 0 C1.94566951 3.47547073 2.07637127 5.12506344 1 9 C0.01 9.33 -0.98 9.66 -2 10 C-1.67 11.65 -1.34 13.3 -1 15 C-1.66 15 -2.32 15 -3 15 C-3.66 15.66 -4.32 16.32 -5 17 C-5.27771418 12.32051602 -4.54837397 9.32416664 -2.5 5.125 C-2.0359375 4.15820312 -1.571875 3.19140625 -1.09375 2.1953125 C-0.7328125 1.47085938 -0.371875 0.74640625 0 0 Z " fill="#E07013" transform="translate(106,183)"/>
<path d="M0 0 C0.33 0 0.66 0 1 0 C1.03738281 0.70125 1.07476562 1.4025 1.11328125 2.125 C1.43982141 6.83742263 1.80711094 11.04634332 3.625 15.4375 C5.01026995 19.02660851 5.11720237 19.61115282 4 23 C2 20 2 20 2 17 C1.34 16.67 0.68 16.34 0 16 C-0.99415358 13.13708937 -1.13519698 10.45070778 -1.125 7.4375 C-1.12757813 6.67308594 -1.13015625 5.90867187 -1.1328125 5.12109375 C-1 3 -1 3 0 0 Z " fill="#DB7217" transform="translate(241,102)"/>
<path d="M0 0 C1.36168026 4.08504077 -0.26463077 6.40298054 -1.9375 10.125 C-4.46585467 16.02188573 -5.68407795 20.50125947 -5 27 C-7 25 -7 25 -7.23046875 22.5390625 C-7.21628906 21.57742187 -7.20210937 20.61578125 -7.1875 19.625 C-7.18105469 18.66851562 -7.17460937 17.71203125 -7.16796875 16.7265625 C-7.02057959 14.33405932 -6.67819373 12.28958203 -6 10 C-5.01 10 -4.02 10 -3 10 C-2.814375 8.9171875 -2.814375 8.9171875 -2.625 7.8125 C-2.0095069 5.04278106 -1.11555626 2.6029646 0 0 Z " fill="#D68E48" transform="translate(249,88)"/>
<path d="M0 0 C2.55070149 2.55070149 3.70869462 5.43135295 5.125 8.6875 C5.66382813 9.88761719 6.20265625 11.08773438 6.7578125 12.32421875 C8.04313181 16.12763217 8.23518975 19.01711268 8 23 C6.27682043 20.41523065 5.46709355 18.70004439 4.5625 15.8125 C3.56930979 12.70624695 2.50232403 9.66129624 1.3125 6.625 C0 3 0 3 0 0 Z " fill="#C4853B" transform="translate(309,275)"/>
<path d="M0 0 C0.33 0 0.66 0 1 0 C1.02698189 1.62490954 1.04638757 3.24994633 1.0625 4.875 C1.07410156 5.77992188 1.08570313 6.68484375 1.09765625 7.6171875 C1 10 1 10 0 12 C-0.66 12 -1.32 12 -2 12 C-2.33 12.99 -2.66 13.98 -3 15 C-3.66 15 -4.32 15 -5 15 C-5 13.35 -5 11.7 -5 10 C-3.68 9.67 -2.36 9.34 -1 9 C-1.020625 7.700625 -1.04125 6.40125 -1.0625 5.0625 C-1.08399454 3.70834367 -1.07148199 2.35243917 -1 1 C-0.67 0.67 -0.34 0.34 0 0 Z " fill="#E77111" transform="translate(197,204)"/>
<path d="M0 0 C0.33 0 0.66 0 1 0 C1.43896367 5.25958286 0.14578136 8.26446943 -2.4375 12.8125 C-3.07558594 13.95332031 -3.71367188 15.09414062 -4.37109375 16.26953125 C-6 19 -6 19 -7 20 C-8.66617115 20.04063832 -10.33388095 20.042721 -12 20 C-11.39285156 19.77699219 -10.78570312 19.55398437 -10.16015625 19.32421875 C-7.30079437 17.57137304 -6.72106133 15.88372762 -5.4375 12.8125 C-5.01984375 11.8328125 -4.6021875 10.853125 -4.171875 9.84375 C-3.78515625 8.9053125 -3.3984375 7.966875 -3 7 C-2.39739679 5.60349098 -1.79353471 4.20752329 -1.1875 2.8125 C-0.5996875 1.4203125 -0.5996875 1.4203125 0 0 Z " fill="#CB8942" transform="translate(100,194)"/>
<path d="M0 0 C0.33 0 0.66 0 1 0 C0.44854729 5.23880078 -0.42922093 9.97350697 -2 15 C-3.32 15.33 -4.64 15.66 -6 16 C-4.25192871 10.53262809 -2.34205919 5.24175152 0 0 Z " fill="#D07D36" transform="translate(115,158)"/>
<path d="M0 0 C0.66 0.33 1.32 0.66 2 1 C2 2.98 2 4.96 2 7 C2.66 7 3.32 7 4 7 C4.50615298 8.26839526 5.00469099 9.53983102 5.5 10.8125 C5.91765625 11.87404297 5.91765625 11.87404297 6.34375 12.95703125 C7 15 7 15 7 18 C6.34 18 5.68 18 5 18 C4.71125 17.2575 4.4225 16.515 4.125 15.75 C2.88328341 12.71469277 1.52639181 9.85884979 -0.1875 7.0625 C-1.24344992 4.38201174 -0.75786685 2.72832067 0 0 Z " fill="#EF7810" transform="translate(301,262)"/>
<path d="M0 0 C1.37677187 3.82436632 0.72799754 7.06881331 0 11 C-0.33 11.66 -0.66 12.32 -1 13 C-1.66 13 -2.32 13 -3 13 C-2.67 13.99 -2.34 14.98 -2 16 C-2.99 16.99 -3.98 17.98 -5 19 C-2.26213592 4.52427184 -2.26213592 4.52427184 0 0 Z " fill="#E7710E" transform="translate(118,154)"/>
<path d="M0 0 C2.97202752 2.97202752 4.10156928 6.58867814 5.6875 10.4375 C6.02072266 11.21416016 6.35394531 11.99082031 6.69726562 12.79101562 C7.16229492 13.9134668 7.16229492 13.9134668 7.63671875 15.05859375 C8.06537231 16.08424438 8.06537231 16.08424438 8.50268555 17.13061523 C9 19 9 19 8 22 C3.55792051 14.77812862 0.9479398 8.44973922 0 0 Z " fill="#D58948" transform="translate(244,115)"/>
<path d="M0 0 C0.66 0 1.32 0 2 0 C0.25551386 5.45615878 -1.52193673 10.82838971 -4 16 C-4.66 16.33 -5.32 16.66 -6 17 C-5.566875 15.515 -5.566875 15.515 -5.125 14 C-3.98624782 10.02250133 -2.98680107 6.01769007 -2 2 C-1.34 2 -0.68 2 0 2 C0 1.34 0 0.68 0 0 Z " fill="#D29F5A" transform="translate(64,144)"/>
<path d="M0 0 C1.5558705 3.11174101 0.20358177 5.25428296 -0.8125 8.5 C-1.16957031 9.6653125 -1.52664062 10.830625 -1.89453125 12.03125 C-3 15 -3 15 -5 17 C-4.69343615 10.37822074 -3.25711277 5.77874846 0 0 Z " fill="#DE7417" transform="translate(206,186)"/>
<path d="M0 0 C2.15925951 5.39814878 -0.86745567 10.97328838 -3 16 C-3.33 16 -3.66 16 -4 16 C-4.08121924 14.39667209 -4.13929134 12.79215974 -4.1875 11.1875 C-4.22230469 10.29417969 -4.25710937 9.40085937 -4.29296875 8.48046875 C-3.9428334 5.51598947 -3.18190656 4.91809922 -1 3 C-0.67 2.01 -0.34 1.02 0 0 Z " fill="#D87725" transform="translate(148,80)"/>
<path d="M0 0 C0.33 0.66 0.66 1.32 1 2 C0.34 2 -0.32 2 -1 2 C-1.12375 3.03125 -1.2475 4.0625 -1.375 5.125 C-1.93889814 8.62116846 -2.78682059 11.68397627 -4 15 C-4.66 15 -5.32 15 -6 15 C-6 13.35 -6 11.7 -6 10 C-5.34 10 -4.68 10 -4 10 C-4.0825 9.0925 -4.165 8.185 -4.25 7.25 C-4 4 -4 4 -2 1.625 C-1.34 1.08875 -0.68 0.5525 0 0 Z " fill="#E37010" transform="translate(267,41)"/>
<path d="M0 0 C0.99 0.495 0.99 0.495 2 1 C2 1.99 2 2.98 2 4 C3.65 4.33 5.3 4.66 7 5 C6.67 7.31 6.34 9.62 6 12 C5.34 12 4.68 12 4 12 C3.3291288 10.3767313 2.66342971 8.75132422 2 7.125 C1.62875 6.22007812 1.2575 5.31515625 0.875 4.3828125 C0 2 0 2 0 0 Z " fill="#D6802B" transform="translate(253,284)"/>
<path d="M0 0 C1.36420006 4.09260018 -0.2335485 6.47012659 -1.9375 10.1875 C-2.22818359 10.84169922 -2.51886719 11.49589844 -2.81835938 12.16992188 C-3.53695343 13.78381344 -4.2673588 15.39243655 -5 17 C-6.23922223 13.28233332 -5.57018942 11.56110463 -4.5625 7.8125 C-4.13130859 6.18248047 -4.13130859 6.18248047 -3.69140625 4.51953125 C-3.46324219 3.68808594 -3.23507813 2.85664063 -3 2 C-2.01 2 -1.02 2 0 2 C0 1.34 0 0.68 0 0 Z " fill="#D38540" transform="translate(138,239)"/>
<path d="M0 0 C3 1 3 1 4.6875 3.625 C6.12813149 7.32948098 6.23634374 10.06093765 6 14 C3.52813545 11.03653214 2.33751639 8.45958311 1.3125 4.75 C1.06113281 3.85796875 0.80976563 2.9659375 0.55078125 2.046875 C0.36902344 1.37140625 0.18726563 0.6959375 0 0 Z " fill="#D27F32" transform="translate(232,233)"/>
<path d="M0 0 C1.5 1.3125 1.5 1.3125 3 3 C3 3.99 3 4.98 3 6 C3.66 6 4.32 6 5 6 C6.85776765 9.13498292 7.20140476 11.37471432 7 15 C3 10.25 3 10.25 3 8 C2.34 7.67 1.68 7.34 1 7 C0.59270772 4.67843403 0.25561323 2.3431213 0 0 Z " fill="#E57612" transform="translate(249,135)"/>
<path d="M0 0 C1.95958713 3.91917426 0.17397688 8.43713361 -1.0625 12.4375 C-1.5265625 13.7059375 -1.5265625 13.7059375 -2 15 C-2.66 15 -3.32 15 -4 15 C-4.59720137 9.17728663 -2.528243 5.0790596 0 0 Z " fill="#D47E32" transform="translate(47,214)"/>
<path d="M0 0 C0.66 0 1.32 0 2 0 C3.49821059 3.37097383 4 5.20442119 4 9 C3.01 9 2.02 9 1 9 C1 8.01 1 7.02 1 6 C0.34 6 -0.32 6 -1 6 C-1.042721 4.33388095 -1.04063832 2.66617115 -1 1 C-0.67 0.67 -0.34 0.34 0 0 Z " fill="#EF7612" transform="translate(263,170)"/>
<path d="M0 0 C4.22113015 5.56421701 5.22675373 8.08401122 5 15 C1.84731686 10.27097529 -0.52668153 5.79349678 0 0 Z " fill="#D57A2B" transform="translate(248,269)"/>
<path d="M0 0 C0.33 0 0.66 0 1 0 C1 1.98 1 3.96 1 6 C4.63 6.33 8.26 6.66 12 7 C12 7.33 12 7.66 12 8 C7.71 8 3.42 8 -1 8 C-2.2077558 4.37673261 -1.54311128 3.35853631 0 0 Z " fill="#D48E47" transform="translate(28,260)"/>
<path d="M0 0 C7.26 0 14.52 0 22 0 C22 0.33 22 0.66 22 1 C21.43490723 1.01458252 20.86981445 1.02916504 20.28759766 1.04418945 C17.73269981 1.11856058 15.17912502 1.21525242 12.625 1.3125 C11.73554688 1.33505859 10.84609375 1.35761719 9.9296875 1.38085938 C9.07890625 1.41630859 8.228125 1.45175781 7.3515625 1.48828125 C6.17327881 1.52755737 6.17327881 1.52755737 4.97119141 1.56762695 C2.59959844 1.84889597 2.59959844 1.84889597 1 5 C0.67 3.35 0.34 1.7 0 0 Z " fill="#D3833D" transform="translate(143,222)"/>
<path d="M0 0 C0.33 0 0.66 0 1 0 C0.43179252 5.45479185 -0.94637945 9.91059256 -3 15 C-3.33 15 -3.66 15 -4 15 C-2.73076923 2.73076923 -2.73076923 2.73076923 0 0 Z " fill="#DB7114" transform="translate(249,83)"/>
<path d="M0 0 C0.66 0 1.32 0 2 0 C2 2.64 2 5.28 2 8 C1.01 8 0.02 8 -1 8 C-1.33 8.99 -1.66 9.98 -2 11 C-2.28571429 3.57142857 -2.28571429 3.57142857 0 0 Z " fill="#EF760D" transform="translate(256,60)"/>
<path d="M0 0 C0.66 0 1.32 0 2 0 C-1.07517084 10.55808656 -1.07517084 10.55808656 -3 15 C-4.43410153 11.21180727 -3.51009497 8.93478721 -2.0625 5.25 C-1.49208984 3.77273437 -1.49208984 3.77273437 -0.91015625 2.265625 C-0.60980469 1.51796875 -0.30945313 0.7703125 0 0 Z " fill="#D0A262" transform="translate(90,79)"/>
<path d="M0 0 C1.21386936 3.64160808 0.6674695 4.33165469 -0.9375 7.6875 C-1.31777344 8.49574219 -1.69804687 9.30398437 -2.08984375 10.13671875 C-2.39019531 10.75160156 -2.69054687 11.36648437 -3 12 C-3.33 12 -3.66 12 -4 12 C-5.3442623 6.62295082 -5.3442623 6.62295082 -3.6875 3.625 C-2 2 -2 2 0 2 C0 1.34 0 0.68 0 0 Z " fill="#D38837" transform="translate(254,76)"/>
<path d="M0 0 C3.7278764 2.64875428 5.74591605 4.55370235 7 9 C7 9.99 7 10.98 7 12 C6.34 12 5.68 12 5 12 C4.71125 11.030625 4.4225 10.06125 4.125 9.0625 C3.35785318 5.89335797 3.35785318 5.89335797 1 5 C0.375 2.4375 0.375 2.4375 0 0 Z " fill="#E47311" transform="translate(221,204)"/>
<path d="M0 0 C2.23495428 2.23495428 3.0024791 4.02414536 4.1875 6.9375 C4.55230469 7.81277344 4.91710937 8.68804687 5.29296875 9.58984375 C6 12 6 12 5 15 C2.82813579 12.82813579 2.3206752 11.50023469 1.375 8.625 C1.11460937 7.85414063 0.85421875 7.08328125 0.5859375 6.2890625 C0 4 0 4 0 0 Z " fill="#CD8549" transform="translate(253,137)"/>
<path d="M0 0 C1.98 0.495 1.98 0.495 4 1 C2.375 6.75 2.375 6.75 -1 9 C-0.67 6.03 -0.34 3.06 0 0 Z " fill="#F0740D" transform="translate(129,129)"/>
<path d="M0 0 C0.66 0.66 1.32 1.32 2 2 C1.01 4.31 0.02 6.62 -1 9 C-1.66 9 -2.32 9 -3 9 C-2.4140625 2.84765625 -2.4140625 2.84765625 -2 1 C-1.34 0.67 -0.68 0.34 0 0 Z " fill="#F2AD4F" transform="translate(78,104)"/>
<path d="M0 0 C0.66 0 1.32 0 2 0 C2 1.32 2 2.64 2 4 C2.66 4 3.32 4 4 4 C4.33 5.65 4.66 7.3 5 9 C4.01 9 3.02 9 2 9 C2 7.68 2 6.36 2 5 C1.34 5 0.68 5 0 5 C0 3.35 0 1.7 0 0 Z " fill="#EE7B12" transform="translate(286,227)"/>
<path d="M0 0 C0.33 0 0.66 0 1 0 C1 2.31 1 4.62 1 7 C0.01 7.33 -0.98 7.66 -2 8 C-2 8.66 -2 9.32 -2 10 C-2.66 9.67 -3.32 9.34 -4 9 C-2.68 6.03 -1.36 3.06 0 0 Z " fill="#D97113" transform="translate(99,201)"/>
<path d="M0 0 C0.33 0.66 0.66 1.32 1 2 C0.26821134 4.07196631 -0.55899003 6.1108552 -1.4375 8.125 C-1.91058594 9.22070312 -2.38367188 10.31640625 -2.87109375 11.4453125 C-3.24363281 12.28835937 -3.61617187 13.13140625 -4 14 C-5.11511089 10.65466733 -4.93410412 10.11946434 -3.6875 7 C-3.42324219 6.319375 -3.15898437 5.63875 -2.88671875 4.9375 C-2 3 -2 3 0 0 Z " fill="#CC8749" transform="translate(207,190)"/>
<path d="M0 0 C3 2 3 2 3.6875 5.125 C3.8421875 6.548125 3.8421875 6.548125 4 8 C2.68 7.67 1.36 7.34 0 7 C0 4.69 0 2.38 0 0 Z " fill="#DF7113" transform="translate(256,150)"/>
<path d="M0 0 C0.33 0.66 0.66 1.32 1 2 C-0.59617578 5.83082186 -1.49984971 7.66656647 -5 10 C-3.14285714 2.42857143 -3.14285714 2.42857143 0 0 Z " fill="#EF760C" transform="translate(253,73)"/>
<path d="M0 0 C0.99 0 1.98 0 3 0 C2.67 1.65 2.34 3.3 2 5 C1.01 5.33 0.02 5.66 -1 6 C-1.042721 4.33388095 -1.04063832 2.66617115 -1 1 C-0.67 0.67 -0.34 0.34 0 0 Z " fill="#F1760F" transform="translate(193,213)"/>
<path d="M0 0 C0.99 0.33 1.98 0.66 3 1 C2.67 2.32 2.34 3.64 2 5 C1.34 5 0.68 5 0 5 C0 5.99 0 6.98 0 8 C-0.99 7.67 -1.98 7.34 -3 7 C-2.01 4.69 -1.02 2.38 0 0 Z " fill="#EDA64A" transform="translate(29,91)"/>
<path d="M0 0 C2.35448165 2.55068845 2.98327924 3.71017358 3.1875 7.25 C3.125625 8.1575 3.06375 9.065 3 10 C0.64551835 7.44931155 0.01672076 6.28982642 -0.1875 2.75 C-0.125625 1.8425 -0.06375 0.935 0 0 Z " fill="#D1813B" transform="translate(216,192)"/>
<path d="M0 0 C0.66 0.33 1.32 0.66 2 1 C2 1.99 2 2.98 2 4 C1.34 4 0.68 4 0 4 C-0.33 5.32 -0.66 6.64 -1 8 C-2.125 3.25 -2.125 3.25 -1 1 C-0.67 0.67 -0.34 0.34 0 0 Z " fill="#F17309" transform="translate(243,94)"/>
<path d="M0 0 C1.32 0 2.64 0 4 0 C4 2 4 2 2.125 4.125 C0 6 0 6 -2 6 C-1.34 4.02 -0.68 2.04 0 0 Z " fill="#CE9E67" transform="translate(38,65)"/>
<path d="M0 0 C0.99 0.33 1.98 0.66 3 1 C3.33 2.98 3.66 4.96 4 7 C3.34 7 2.68 7 2 7 C0.5393715 4.35261084 0 3.10551666 0 0 Z " fill="#D17D30" transform="translate(222,209)"/>
</svg>
